<svg width="300" height="94" viewBox="0 0 300 94" fill="none" xmlns="http://www.w3.org/2000/svg">
<path d="M121.54 35C122.526 34.9974 123.502 35.1896 124.413 35.5655C125.324 35.9415 126.152 36.4938 126.849 37.1908C127.546 37.8878 128.098 38.7156 128.474 39.6268C128.85 40.5379 129.043 41.5143 129.04 42.5V53.72C129.044 54.7065 128.853 55.684 128.477 56.5963C128.102 57.5086 127.55 58.3376 126.853 59.0357C126.156 59.7337 125.327 60.2869 124.416 60.6635C123.504 61.0401 122.526 61.2326 121.54 61.23H120.6C119.613 61.234 118.634 61.0424 117.721 60.6664C116.808 60.2904 115.979 59.7374 115.281 59.0392C114.583 58.3411 114.03 57.5116 113.654 56.5986C113.278 55.6857 113.086 54.7073 113.09 53.72V42.45C113.094 41.4677 113.291 40.4958 113.671 39.5898C114.05 38.6838 114.605 37.8614 115.302 37.1696C115.999 36.4778 116.826 35.9301 117.735 35.5579C118.644 35.1856 119.618 34.9961 120.6 35H121.54ZM127.63 42.5C127.631 41.6999 127.475 40.9074 127.169 40.1679C126.864 39.4284 126.415 38.7566 125.849 38.1908C125.283 37.625 124.612 37.1765 123.872 36.8709C123.133 36.5653 122.34 36.4087 121.54 36.41H120.6C118.983 36.41 117.432 37.051 116.287 38.1925C115.141 39.334 114.495 40.883 114.49 42.5V53.72C114.5 55.3372 115.148 56.8853 116.291 58.0288C117.435 59.1724 118.983 59.8195 120.6 59.83H121.54C123.157 59.8247 124.706 59.1786 125.847 58.0334C126.989 56.8881 127.63 55.337 127.63 53.72V42.5ZM121.54 37.34C122.906 37.3479 124.214 37.894 125.18 38.86C126.146 39.826 126.692 41.1339 126.7 42.5V53.72C126.708 54.3998 126.577 55.074 126.316 55.7016C126.055 56.3292 125.668 56.8969 125.18 57.37C124.711 57.8603 124.145 58.2484 123.519 58.5099C122.892 58.7715 122.219 58.9009 121.54 58.89H120.6C119.23 58.8847 117.919 58.3383 116.95 57.3699C115.982 56.4015 115.435 55.0895 115.43 53.72V42.45C115.423 41.7673 115.559 41.0907 115.83 40.4638C116.1 39.8369 116.499 39.2735 117 38.81C117.473 38.3218 118.041 37.9352 118.668 37.6739C119.296 37.4125 119.97 37.2819 120.65 37.29L121.54 37.34ZM125.29 42.5C125.28 41.5087 124.881 40.5609 124.18 39.8599C123.479 39.1588 122.531 38.7604 121.54 38.75H120.6C120.104 38.7436 119.613 38.8388 119.155 39.0297C118.698 39.2206 118.284 39.5032 117.94 39.86C117.583 40.1989 117.3 40.6089 117.111 41.0636C116.921 41.5183 116.829 42.0076 116.84 42.5V53.72C116.84 54.7181 117.236 55.6755 117.941 56.3823C118.646 57.089 119.602 57.4874 120.6 57.49H121.54C122.033 57.4991 122.523 57.405 122.977 57.2139C123.432 57.0227 123.842 56.7387 124.18 56.38C124.537 56.0359 124.819 55.6224 125.01 55.1649C125.201 54.7074 125.296 54.2157 125.29 53.72V42.5Z" fill="#0438A1"/>
<path d="M134.39 36.39C134.087 36.4608 133.819 36.638 133.636 36.8894C133.452 37.1408 133.365 37.4497 133.39 37.76V61.23H131.98V37.76C131.97 37.137 132.175 36.5296 132.56 36.04C132.916 35.5483 133.421 35.1838 134 35C134.603 34.8317 135.247 34.8776 135.82 35.13C136.393 35.375 136.868 35.8044 137.17 36.35L137.23 36.46L144.11 53.52V34.93H145.51V58.42C145.519 58.5238 145.49 58.6274 145.427 58.7106C145.364 58.7937 145.272 58.8506 145.17 58.87C145.073 58.8981 144.97 58.8938 144.876 58.8577C144.782 58.8216 144.703 58.7556 144.65 58.67L136 37.13V37.07C135.866 36.7753 135.626 36.5418 135.328 36.4158C135.029 36.2898 134.695 36.2806 134.39 36.39ZM147.88 34.93V58.42C147.893 59.0431 147.695 59.6524 147.32 60.15C146.941 60.6505 146.4 61.0039 145.79 61.15C145.548 61.21 145.299 61.2403 145.05 61.24C144.55 61.2548 144.056 61.1272 143.626 60.8723C143.196 60.6174 142.847 60.2455 142.62 59.8L142.56 59.71L135.68 42.63V61.23H134.27V37.76C134.266 37.6542 134.3 37.5505 134.366 37.4679C134.432 37.3852 134.526 37.3292 134.63 37.31C134.724 37.2738 134.827 37.2732 134.921 37.3082C135.015 37.3432 135.093 37.4114 135.14 37.5L143.82 59.06V59.12C143.955 59.4054 144.192 59.6302 144.484 59.7504C144.776 59.8706 145.103 59.8776 145.4 59.77C145.701 59.7034 145.969 59.5301 146.152 59.282C146.336 59.0339 146.424 58.7278 146.4 58.42V34.93H147.88Z" fill="#0438A1"/>
<path d="M166.19 35V36.41H156.79C156.237 36.4087 155.689 36.5167 155.177 36.7278C154.666 36.9389 154.201 37.2489 153.81 37.6401C153.419 38.0313 153.109 38.496 152.898 39.0073C152.687 39.5187 152.579 40.0668 152.58 40.62V55.62C152.577 56.175 152.684 56.7251 152.895 57.2388C153.105 57.7524 153.414 58.2195 153.805 58.6134C154.196 59.0072 154.661 59.3201 155.174 59.534C155.686 59.7479 156.235 59.8587 156.79 59.86H166.19V61.26H156.79C156.051 61.2587 155.319 61.1118 154.636 60.8276C153.954 60.5435 153.334 60.1277 152.812 59.6039C152.29 59.0802 151.876 58.4588 151.595 57.7753C151.313 57.0917 151.169 56.3593 151.17 55.62V40.62C151.173 39.1303 151.766 37.7024 152.819 36.649C153.872 35.5956 155.3 35.0026 156.79 35H166.19ZM153.51 40.62C153.518 39.7491 153.869 38.9164 154.486 38.3024C155.104 37.6884 155.939 37.3426 156.81 37.34H166.19V38.7H156.81C156.563 38.6951 156.318 38.7405 156.09 38.8333C155.861 38.9262 155.653 39.0645 155.48 39.24C155.302 39.4129 155.161 39.6197 155.065 39.8481C154.969 40.0766 154.919 40.3221 154.92 40.57V44.34H166.19V45.75H153.51V40.62ZM153.51 46.74H166.19V48.14H154.92V55.66C154.933 56.1563 155.136 56.6286 155.488 56.9787C155.84 57.3289 156.314 57.5299 156.81 57.54H166.19V58.94H156.81C155.941 58.9323 155.109 58.5848 154.492 57.9719C153.875 57.3591 153.523 56.5293 153.51 55.66V46.74Z" fill="#0438A1"/>
<path d="M178.14 35H194.06V36.41H178.14V35ZM185.62 37.34V61.23H184.21V38.7H178.14V37.29L185.62 37.34ZM194.06 37.34V38.7H188V61.23H186.58V37.29L194.06 37.34Z" fill="#0438A1"/>
<path d="M211 35V36.41H201.61C201.056 36.4074 200.507 36.5144 199.994 36.7249C199.482 36.9354 199.016 37.2453 198.624 37.6366C198.231 38.0279 197.92 38.493 197.709 39.005C197.497 39.5171 197.389 40.0659 197.39 40.62V55.62C197.387 56.1759 197.495 56.7268 197.705 57.2411C197.916 57.7554 198.227 58.223 198.619 58.6169C199.011 59.0109 199.477 59.3236 199.99 59.5369C200.504 59.7502 201.054 59.86 201.61 59.86H211V61.26H201.61C200.869 61.2574 200.136 61.1085 199.452 60.8219C198.769 60.5353 198.149 60.1166 197.628 59.5898C197.107 59.063 196.694 58.4386 196.415 57.7522C196.136 57.0658 195.995 56.331 196 55.59V40.59C196.011 39.102 196.61 37.6788 197.667 36.6313C198.723 35.5838 200.152 34.9973 201.64 35H211ZM198.32 40.62C198.328 39.7491 198.679 38.9164 199.296 38.3024C199.914 37.6884 200.749 37.3426 201.62 37.34H211V38.7H201.62C201.373 38.6952 201.128 38.7405 200.9 38.8333C200.671 38.9262 200.464 39.0645 200.29 39.24C200.112 39.4129 199.971 39.6197 199.875 39.8482C199.779 40.0766 199.729 40.3221 199.73 40.57V44.34H211V45.75H198.35L198.32 40.62ZM198.32 46.74H211V48.14H199.76V55.66C199.773 56.1563 199.976 56.6286 200.328 56.9787C200.68 57.3289 201.154 57.5299 201.65 57.54H211V58.94H201.62C200.751 58.9323 199.919 58.5848 199.302 57.972C198.686 57.3591 198.333 56.5293 198.32 55.66V46.74Z" fill="#0438A1"/>
<path d="M218.85 36.36C218.293 36.3532 217.74 36.4586 217.225 36.6699C216.709 36.8812 216.242 37.1941 215.85 37.59C215.45 37.979 215.133 38.4458 214.92 38.9617C214.706 39.4777 214.601 40.0318 214.61 40.59V61.23H213.22V40.57C213.241 39.0889 213.843 37.6753 214.896 36.6335C215.949 35.5917 217.369 35.0051 218.85 35H224.49C224.984 34.9946 225.474 35.088 225.931 35.2745C226.389 35.4611 226.804 35.7371 227.154 36.0864C227.503 36.4357 227.779 36.8512 227.965 37.3086C228.152 37.766 228.245 38.2561 228.24 38.75V44.37C228.247 44.8652 228.154 45.3568 227.969 45.8159C227.783 46.275 227.507 46.6924 227.158 47.0436C226.808 47.3947 226.393 47.6726 225.934 47.8609C225.476 48.0491 224.985 48.144 224.49 48.14H220.44L229 61.23H227.3L217.85 46.69H224.48C224.792 46.696 225.101 46.6368 225.389 46.5163C225.676 46.3957 225.936 46.2165 226.15 45.99C226.37 45.7715 226.543 45.511 226.66 45.2241C226.776 44.9372 226.834 44.6297 226.83 44.32V38.7C226.83 38.3919 226.769 38.0868 226.651 37.8022C226.533 37.5177 226.359 37.2592 226.141 37.0418C225.923 36.8244 225.664 36.6523 225.379 36.5352C225.093 36.4182 224.788 36.3587 224.48 36.36H218.85ZM215.55 45.75V40.57C215.551 40.138 215.638 39.7104 215.804 39.3117C215.971 38.9131 216.214 38.5511 216.521 38.2465C216.827 37.942 217.191 37.7007 217.59 37.5366C217.99 37.3725 218.418 37.2887 218.85 37.29H224.47C224.843 37.2926 225.2 37.442 225.464 37.7059C225.728 37.9697 225.877 38.3269 225.88 38.7V44.32C225.88 44.6944 225.733 45.0537 225.47 45.32C225.339 45.4517 225.183 45.5558 225.011 45.6262C224.84 45.6966 224.656 45.7319 224.47 45.73L215.55 45.75ZM226.18 61.23H224.51L217 49.65V61.23H215.57V46.69H216.73L226.18 61.23ZM217 44.32H224.51V38.7H218.87C218.626 38.6961 218.385 38.742 218.159 38.8349C217.934 38.9277 217.73 39.0656 217.56 39.24C217.38 39.4114 217.238 39.618 217.142 39.8468C217.045 40.0756 216.997 40.3218 217 40.57V44.32Z" fill="#0438A1"/>
<path d="M236.29 36.36C235.733 36.3532 235.18 36.4586 234.665 36.6699C234.149 36.8812 233.682 37.1941 233.29 37.59C232.89 37.9789 232.573 38.4458 232.36 38.9617C232.146 39.4777 232.041 40.0318 232.05 40.59V61.23H230.67V40.57C230.686 39.089 231.285 37.6738 232.337 36.6312C233.388 35.5886 234.809 35.0025 236.29 35H241.93C242.424 34.996 242.913 35.0903 243.37 35.2773C243.827 35.4643 244.242 35.7404 244.591 36.0894C244.94 36.4385 245.216 36.8534 245.403 37.3102C245.59 37.767 245.684 38.2564 245.68 38.75V44.37C245.684 44.8645 245.59 45.3549 245.403 45.8128C245.216 46.2707 244.94 46.6869 244.592 47.0376C244.243 47.3882 243.828 47.6661 243.371 47.8554C242.914 48.0446 242.425 48.1413 241.93 48.14H237.88L246.43 61.28H244.73L235.28 46.74H241.92C242.23 46.744 242.537 46.6839 242.823 46.5634C243.109 46.4429 243.366 46.2647 243.58 46.04C243.8 45.8215 243.973 45.561 244.09 45.2741C244.206 44.9872 244.264 44.6797 244.26 44.37V38.7C244.265 38.3931 244.208 38.0885 244.091 37.8047C243.974 37.5209 243.8 37.2641 243.58 37.05C243.365 36.828 243.107 36.6523 242.821 36.5337C242.536 36.415 242.229 36.3559 241.92 36.36H236.29ZM233 45.75V40.57C233.008 39.6991 233.359 38.8663 233.976 38.2524C234.594 37.6384 235.429 37.2926 236.3 37.29H241.93C242.301 37.2952 242.656 37.4458 242.918 37.7093C243.179 37.9729 243.327 38.3286 243.33 38.7V44.32C243.33 44.6943 243.183 45.0537 242.92 45.32C242.789 45.4521 242.634 45.5565 242.462 45.627C242.29 45.6974 242.106 45.7325 241.92 45.73L233 45.75ZM243.63 61.23H242L234.47 49.65V61.23H233V46.69H234.16L243.63 61.23ZM234.43 44.32H241.94V38.7H236.3C236.056 38.6961 235.815 38.742 235.589 38.8349C235.364 38.9277 235.16 39.0656 234.99 39.24C234.81 39.4114 234.668 39.618 234.572 39.8468C234.475 40.0756 234.427 40.3218 234.43 40.57V44.32Z" fill="#0438A1"/>
<path d="M264.06 35V61.23H262.65V36.36H253.73C252.613 36.36 251.541 36.8032 250.75 37.5925C249.958 38.3817 249.513 39.4525 249.51 40.57V61.23H248.1V40.57C248.116 39.0873 248.716 37.6706 249.77 36.6277C250.824 35.5848 252.247 34.9999 253.73 35H264.06ZM250.45 40.62C250.451 40.1879 250.538 39.7604 250.704 39.3617C250.871 38.9631 251.114 38.6011 251.421 38.2965C251.727 37.992 252.091 37.7507 252.49 37.5866C252.89 37.4225 253.318 37.3387 253.75 37.34H261.75V45.8H250.45V40.62ZM261.72 46.74V61.23H260.31V48.09H251.85V61.23H250.45V46.69L261.72 46.74ZM260.31 38.74H253.75C253.25 38.7373 252.77 38.9325 252.414 39.2829C252.058 39.6334 251.855 40.1105 251.85 40.61V44.38H260.31V38.74Z" fill="#0438A1"/>
<path d="M282.17 35V36.41H274.67C273.053 36.41 271.502 37.051 270.357 38.1925C269.211 39.334 268.565 40.883 268.56 42.5V53.72C268.57 55.3372 269.218 56.8853 270.361 58.0288C271.505 59.1724 273.053 59.8195 274.67 59.83H282.17V61.23H274.67C273.683 61.234 272.704 61.0424 271.791 60.6664C270.878 60.2904 270.049 59.7374 269.351 59.0392C268.653 58.3411 268.1 57.5116 267.724 56.5987C267.348 55.6857 267.156 54.7074 267.16 53.72V42.45C267.157 41.4635 267.35 40.4862 267.726 39.5744C268.103 38.6627 268.656 37.8344 269.354 37.1373C270.052 36.4402 270.881 35.888 271.794 35.5127C272.706 35.1373 273.684 34.9461 274.67 34.95L282.17 35ZM269.5 42.5C269.48 41.8144 269.602 41.1322 269.861 40.4968C270.119 39.8614 270.507 39.2869 271 38.81C271.473 38.3218 272.041 37.9352 272.668 37.6739C273.296 37.4126 273.97 37.2819 274.65 37.29H282.15V38.7H274.65C274.156 38.695 273.666 38.7908 273.211 38.9817C272.755 39.1725 272.343 39.4544 272 39.81C271.645 40.1505 271.363 40.5607 271.174 41.015C270.985 41.4694 270.891 41.9579 270.9 42.45V53.72C270.9 54.7181 271.296 55.6755 272.001 56.3823C272.706 57.089 273.662 57.4874 274.66 57.49H282.16V58.89H274.66C273.29 58.8847 271.978 58.3384 271.01 57.3699C270.042 56.4015 269.495 55.0896 269.49 53.72L269.5 42.5Z" fill="#0438A1"/>
<path d="M299.05 35V36.41H289.66C288.543 36.41 287.471 36.8532 286.68 37.6425C285.888 38.4317 285.443 39.5025 285.44 40.62V55.62C285.439 56.1755 285.547 56.7258 285.758 57.2395C285.97 57.7532 286.28 58.2203 286.672 58.614C287.064 59.0077 287.529 59.3204 288.042 59.5342C288.555 59.748 289.105 59.8587 289.66 59.86H299.05V61.26H289.66C288.915 61.264 288.176 61.12 287.487 60.8363C286.798 60.5527 286.172 60.135 285.645 59.6076C285.119 59.0801 284.702 58.4534 284.42 57.7637C284.137 57.0741 283.995 56.3352 284 55.59V40.59C284.011 39.0986 284.613 37.6723 285.674 36.6242C286.735 35.5762 288.169 34.992 289.66 35H299.05ZM286.38 40.62C286.381 40.1879 286.468 39.7604 286.634 39.3617C286.801 38.9631 287.044 38.6011 287.351 38.2965C287.657 37.992 288.021 37.7507 288.42 37.5866C288.82 37.4225 289.248 37.3387 289.68 37.34H299.05V38.7H289.68C289.18 38.6973 288.7 38.8925 288.344 39.2429C287.988 39.5934 287.785 40.0705 287.78 40.57V44.34H299.05V45.75H286.38V40.62ZM286.38 46.74H299.05V48.14H287.78V55.66C287.798 56.1564 288.004 56.6274 288.357 56.9767C288.71 57.3261 289.183 57.5276 289.68 57.54H299.05V58.94H289.68C288.809 58.9374 287.974 58.5916 287.356 57.9776C286.739 57.3636 286.388 56.5309 286.38 55.66V46.74Z" fill="#0438A1"/>
<path d="M26.73 93.91L0 60.39L9.54 18.6L48.16 0L86.78 18.6L96.32 60.39L69.6 93.91H26.73Z" fill="#0438A1"/>
<path d="M32.8 70.55C32.6266 70.3775 32.4902 70.1715 32.3991 69.9446C32.308 69.7176 32.264 69.4745 32.27 69.23L32.33 62.59H23.33C23.0367 62.5905 22.7475 62.5209 22.4866 62.3869C22.2257 62.253 22.0006 62.0586 21.83 61.82C21.658 61.5818 21.5456 61.3059 21.5021 61.0154C21.4586 60.7248 21.4853 60.4281 21.58 60.15L33.77 24.06C33.8919 23.6952 34.1256 23.3781 34.438 23.1538C34.7503 22.9294 35.1254 22.8091 35.51 22.81H60.39C60.792 22.8096 61.1832 22.9402 61.5043 23.182C61.8255 23.4238 62.0592 23.7636 62.17 24.15L74.79 68.73C74.8693 69.0031 74.8834 69.2911 74.8313 69.5707C74.7792 69.8502 74.6623 70.1137 74.49 70.34C74.3203 70.5701 74.0988 70.7571 73.8434 70.8856C73.588 71.0142 73.3059 71.0808 73.02 71.08H34.11C33.6178 71.0772 33.1467 70.8795 32.8 70.53V70.55ZM36 67.41H70.61L59 26.5H36.84L25.84 58.9H32.47C32.6661 57.7523 33.0229 56.6381 33.53 55.59C34.2579 54.1234 35.2798 52.8222 36.5323 51.7676C37.7847 50.713 39.2408 49.9275 40.81 49.46C41.0398 49.3833 41.2825 49.3528 41.5241 49.3702C41.7657 49.3875 42.0015 49.4524 42.218 49.5611C42.4345 49.6698 42.6274 49.8202 42.7856 50.0036C42.9438 50.187 43.0642 50.3999 43.14 50.63C43.2235 50.8603 43.2602 51.1049 43.2478 51.3496C43.2355 51.5942 43.1745 51.834 43.0683 52.0547C42.9621 52.2754 42.8129 52.4728 42.6295 52.6351C42.446 52.7974 42.232 52.9215 42 53C40.8986 53.3118 39.8745 53.85 38.9929 54.5801C38.1113 55.3101 37.3917 56.2161 36.88 57.24C36.6158 57.783 36.4113 58.3529 36.27 58.94H56.74C56.626 57.3811 56.1647 55.8675 55.39 54.51C54.25 52.73 52.39 51.28 48.39 50.94C45.797 50.7905 43.3548 49.6725 41.5472 47.8074C39.7395 45.9424 38.6984 43.4664 38.63 40.87C38.5899 38.9897 39.2902 37.1688 40.58 35.8C41.3493 35.0636 42.2599 34.4907 43.2567 34.116C44.2536 33.7413 45.3161 33.5726 46.38 33.62H47.08C49.2793 33.5891 51.426 34.2929 53.18 35.62C53.8256 36.1883 54.3391 36.891 54.6846 37.6787C55.0301 38.4664 55.1992 39.3201 55.18 40.18C54.9596 42.9415 54.0107 45.595 52.43 47.87C54.9955 48.5993 57.2004 50.2521 58.62 52.51C60.0301 55.0139 60.7221 57.8582 60.62 60.73C60.6208 60.9717 60.5735 61.2111 60.4808 61.4343C60.3881 61.6575 60.2518 61.86 60.08 62.03C59.7336 62.3725 59.2671 62.5662 58.78 62.57H36V67.41ZM43.21 38.34C42.5974 39.0212 42.2745 39.9145 42.31 40.83C42.3796 42.4532 43.0384 43.9954 44.163 45.1679C45.2877 46.3404 46.8011 47.0629 48.42 47.2C48.4831 47.0593 48.5601 46.9253 48.65 46.8C48.65 46.8 48.81 46.59 49.08 46.18C49.4417 45.6408 49.7754 45.0834 50.08 44.51C50.8384 43.1908 51.2896 41.7176 51.4 40.2C51.4271 39.8681 51.3782 39.5343 51.2569 39.2241C51.1356 38.9139 50.9451 38.6355 50.7 38.41C49.5633 37.6317 48.2067 37.2391 46.83 37.29H46.34C45.768 37.2418 45.1923 37.312 44.6486 37.4961C44.105 37.6802 43.605 37.9742 43.18 38.36L43.21 38.34Z" fill="white"/>
</svg>
