<svg xmlns="http://www.w3.org/2000/svg" width="188px" height="99px" viewBox="0 0 169.43 79.69">
  <title>ace-logo</title>
  <path d="M44.17,49H26.08l-2.15,5a11.23,11.23,0,0,0-1.06,4.14,3.45,3.45,0,0,0,1.74,3.19q1,.61,5,.91v1.41h-17V62.31A7.6,7.6,0,0,0,17.14,60q1.77-1.88,4.38-7.77L39.83,11.12h.72L59,53.38q2.64,6,4.34,7.56A5.9,5.9,0,0,0,67,62.31v1.41H42.2V62.31h1a7.71,7.71,0,0,0,4.19-.84,2,2,0,0,0,.83-1.75A4.69,4.69,0,0,0,48,58.32q-.08-.34-1.13-2.85Zm-1.28-2.81L35.26,28.49,27.4,46.24ZM119.45,11V28.87H118q-1.66-7-6.19-10.72a15.73,15.73,0,0,0-10.27-3.72,15.11,15.11,0,0,0-8.8,2.77,16.16,16.16,0,0,0-5.85,7.26,33,33,0,0,0-2.38,12.77,43,43,0,0,0,1.74,12.6,16.76,16.76,0,0,0,5.44,8.59,15.06,15.06,0,0,0,9.59,2.91,18.63,18.63,0,0,0,8.85-2.13,30.65,30.65,0,0,0,8.47-7.33v4.45a28,28,0,0,1-9,6.56,27.07,27.07,0,0,1-10.89,2,31.1,31.1,0,0,1-14.55-3.31,23.28,23.28,0,0,1-9.82-9.5A26.66,26.66,0,0,1,70.9,38.9a27.47,27.47,0,0,1,3.83-14A27.08,27.08,0,0,1,85.07,14.66,27.88,27.88,0,0,1,98.91,11a31.23,31.23,0,0,1,11.4,2.36,17.46,17.46,0,0,0,4.42,1.37,2.86,2.86,0,0,0,2.1-.89A4.88,4.88,0,0,0,118,11Zm25.29,4.14v21h1q4.87,0,7.06-3.08T155.62,24h1.43V51h-1.43a20.33,20.33,0,0,0-1.91-7.22,8.25,8.25,0,0,0-3.38-3.78,12.77,12.77,0,0,0-5.59-1V53.5a21,21,0,0,0,.36,5.21,3.12,3.12,0,0,0,1.34,1.56,6.26,6.26,0,0,0,3.17.61h3.06q7.17,0,11.5-3.34t6.21-10.19h1.4l-2.3,16.38H125.23V62.31h1.7a7,7,0,0,0,3.59-.8A3.46,3.46,0,0,0,132,59.69a15.78,15.78,0,0,0,.42-4.79V21a27.2,27.2,0,0,0-.19-4.29,3.64,3.64,0,0,0-1.4-2.05,6.46,6.46,0,0,0-3.93-1.06h-1.7V12.19h42.85V27.43h-1.44q-1.09-5.59-3.08-8A11.43,11.43,0,0,0,158,15.83a30.18,30.18,0,0,0-7.93-.68Z" transform="translate(-8.62 -11.01)" fill="#1e487d"/>
  <path d="M8.62,86.17v-.38H9.1a2,2,0,0,0,1-.19,1.18,1.18,0,0,0,.5-.52,4.72,4.72,0,0,0,.1-1.29V74.64a4.41,4.41,0,0,0-.12-1.33,1.05,1.05,0,0,0-.48-.47,2,2,0,0,0-1-.2H8.62v-.38H15.1a10.75,10.75,0,0,1,4.17.68,6.1,6.1,0,0,1,2.93,2.51A7.72,7.72,0,0,1,22.71,82a5.94,5.94,0,0,1-3.07,3.33,9.87,9.87,0,0,1-2.49.75,12.2,12.2,0,0,1-2,.12Zm5.52-13.12V83.9A3.66,3.66,0,0,0,14.23,85a.6.6,0,0,0,.29.3,1.82,1.82,0,0,0,.83.15,3.29,3.29,0,0,0,2.72-1.17,7.71,7.71,0,0,0,1.28-4.9,8.92,8.92,0,0,0-.88-4.28,3.67,3.67,0,0,0-1.78-1.7A7.2,7.2,0,0,0,14.14,73.05Zm16.23,11.7a5.36,5.36,0,0,1-3.28,1.55,2,2,0,0,1-1.42-.54,1.78,1.78,0,0,1-.57-1.35,2.6,2.6,0,0,1,1-2,18.85,18.85,0,0,1,4.28-2.33v-1a4.48,4.48,0,0,0-.12-1.37,1.11,1.11,0,0,0-.46-.49,1.43,1.43,0,0,0-.77-.21,2,2,0,0,0-1.14.3.52.52,0,0,0-.28.43.88.88,0,0,0,.3.53,1.29,1.29,0,0,1,.41.85,1.11,1.11,0,0,1-.39.86,1.46,1.46,0,0,1-1,.35A1.67,1.67,0,0,1,25.76,80a1.17,1.17,0,0,1-.45-.91,2.08,2.08,0,0,1,.61-1.41,3.87,3.87,0,0,1,1.7-1,7.18,7.18,0,0,1,2.26-.36,3.85,3.85,0,0,1,2.25.58,2.74,2.74,0,0,1,1.07,1.26,7.83,7.83,0,0,1,.15,2v3.72a3.7,3.7,0,0,0,.05.83.48.48,0,0,0,.16.25.39.39,0,0,0,.25.08.77.77,0,0,0,.57-.38l.32.25a3.83,3.83,0,0,1-1.1,1.1,2.47,2.47,0,0,1-1.3.34A2.09,2.09,0,0,1,31,85.92,1.72,1.72,0,0,1,30.37,84.75Zm0-.75V80.79a6.18,6.18,0,0,0-1.92,1.56A1.85,1.85,0,0,0,28,83.47a1.15,1.15,0,0,0,.35.83,1,1,0,0,0,.75.28A2.08,2.08,0,0,0,30.37,84Zm9.38-10.93v3.51h2.37v1H39.75v5.92a4.35,4.35,0,0,0,.08,1.07.78.78,0,0,0,.28.39.65.65,0,0,0,.37.15q.69,0,1.31-1l.32.22a2.91,2.91,0,0,1-2.81,2,2.55,2.55,0,0,1-1.61-.51,2.24,2.24,0,0,1-.84-1.13,9.28,9.28,0,0,1-.11-1.89V77.59h-1.3v-.36a13.59,13.59,0,0,0,2.29-1.92,11.69,11.69,0,0,0,1.65-2.25Zm8.83,11.68A5.36,5.36,0,0,1,45.3,86.3a2,2,0,0,1-1.42-.54,1.78,1.78,0,0,1-.57-1.35,2.6,2.6,0,0,1,1-2,18.85,18.85,0,0,1,4.28-2.33v-1a4.48,4.48,0,0,0-.12-1.37,1.11,1.11,0,0,0-.46-.49,1.43,1.43,0,0,0-.77-.21,2,2,0,0,0-1.14.3.52.52,0,0,0-.28.43.88.88,0,0,0,.3.53,1.29,1.29,0,0,1,.41.85,1.11,1.11,0,0,1-.39.86,1.46,1.46,0,0,1-1,.35A1.67,1.67,0,0,1,44,80a1.17,1.17,0,0,1-.45-.91,2.08,2.08,0,0,1,.61-1.41,3.87,3.87,0,0,1,1.7-1,7.18,7.18,0,0,1,2.26-.36,3.85,3.85,0,0,1,2.25.58,2.74,2.74,0,0,1,1.07,1.26,7.83,7.83,0,0,1,.15,2v3.72a3.7,3.7,0,0,0,.05.83.48.48,0,0,0,.16.25A.39.39,0,0,0,52,85a.77.77,0,0,0,.57-.38l.32.25A3.83,3.83,0,0,1,51.8,86a2.47,2.47,0,0,1-1.3.34,2.09,2.09,0,0,1-1.33-.38A1.72,1.72,0,0,1,48.58,84.75Zm0-.75V80.79a6.18,6.18,0,0,0-1.92,1.56,1.85,1.85,0,0,0-.42,1.12,1.15,1.15,0,0,0,.35.83,1,1,0,0,0,.75.28A2.08,2.08,0,0,0,48.58,84ZM69,71.94l.12,4.63h-.44a4.69,4.69,0,0,0-1.52-2.8,3.91,3.91,0,0,0-2.62-1.06,2.52,2.52,0,0,0-1.72.56,1.68,1.68,0,0,0-.64,1.29,1.52,1.52,0,0,0,.22.82,3.55,3.55,0,0,0,1,1,22.38,22.38,0,0,0,2.32,1.2,10.31,10.31,0,0,1,3.43,2.27A3.74,3.74,0,0,1,70,82.24a3.88,3.88,0,0,1-1.41,3A5.21,5.21,0,0,1,65,86.49a6.09,6.09,0,0,1-1.29-.13,10.16,10.16,0,0,1-1.53-.5,2.39,2.39,0,0,0-.84-.21,1.07,1.07,0,0,0-.59.21,1.44,1.44,0,0,0-.5.63h-.4V81.23h.4a5.94,5.94,0,0,0,1.81,3.38A4.32,4.32,0,0,0,65,85.78a2.78,2.78,0,0,0,1.91-.63,1.89,1.89,0,0,0,.71-1.46,1.85,1.85,0,0,0-.27-1,3.08,3.08,0,0,0-.83-.88,12.69,12.69,0,0,0-2-1.08,17.12,17.12,0,0,1-2.84-1.59,4.93,4.93,0,0,1-1.33-1.47,3.52,3.52,0,0,1-.46-1.78,3.71,3.71,0,0,1,1.27-2.83,4.55,4.55,0,0,1,3.2-1.17,5.71,5.71,0,0,1,1.37.16,7,7,0,0,1,1.22.46,3,3,0,0,0,1,.33.58.58,0,0,0,.44-.16,1.84,1.84,0,0,0,.3-.79Zm7.21,14.61L73,79.45a9.08,9.08,0,0,0-1.07-2,1.84,1.84,0,0,0-.84-.51v-.38h5.31V77a1.27,1.27,0,0,0-.74.19.53.53,0,0,0-.21.42A4.84,4.84,0,0,0,76,79.11l1.71,3.75L78.84,80a7,7,0,0,0,.63-2.15.76.76,0,0,0-.26-.6,1.51,1.51,0,0,0-.92-.25v-.38h3.34V77a1.27,1.27,0,0,0-.8.36,8.89,8.89,0,0,0-1,2.13l-2.85,7.11a15.35,15.35,0,0,1-1.6,3.28,2.33,2.33,0,0,1-1.85.86,2.08,2.08,0,0,1-1.44-.49A1.51,1.51,0,0,1,71.5,89a1.36,1.36,0,0,1,.38-1,1.25,1.25,0,0,1,.93-.39,1.16,1.16,0,0,1,.86.33A1.42,1.42,0,0,1,74,89a1,1,0,0,0,.1.5.29.29,0,0,0,.25.11.8.8,0,0,0,.54-.3,6.28,6.28,0,0,0,1-2ZM88.87,76.31,89,79.58h-.36a5.13,5.13,0,0,0-1.35-2,2.3,2.3,0,0,0-1.39-.53,1.07,1.07,0,0,0-.75.28.86.86,0,0,0-.31.65.83.83,0,0,0,.21.53A10.21,10.21,0,0,0,87,80a7.78,7.78,0,0,1,2.07,1.73,2.73,2.73,0,0,1,.5,1.59,3.25,3.25,0,0,1-.42,1.57A2.85,2.85,0,0,1,88,86a3.46,3.46,0,0,1-1.68.41A6,6,0,0,1,84.38,86a1.64,1.64,0,0,0-.44-.11q-.35,0-.59.51H83L82.83,83h.36a4.44,4.44,0,0,0,1.32,2,2.58,2.58,0,0,0,1.59.68,1.18,1.18,0,0,0,.84-.3,1,1,0,0,0,.33-.73,1.24,1.24,0,0,0-.32-.85,8.36,8.36,0,0,0-1.43-1.09A11.08,11.08,0,0,1,83.4,81a2.82,2.82,0,0,1-.7-1.86,3,3,0,0,1,.8-2,2.91,2.91,0,0,1,2.3-.9,3.47,3.47,0,0,1,1.57.38,1.07,1.07,0,0,0,.47.15.56.56,0,0,0,.31-.08,2,2,0,0,0,.37-.44ZM95,73.07v3.51H97.4v1H95v5.92a4.38,4.38,0,0,0,.08,1.07.78.78,0,0,0,.28.39.65.65,0,0,0,.37.15q.69,0,1.31-1l.32.22a2.91,2.91,0,0,1-2.81,2A2.55,2.55,0,0,1,93,85.79a2.24,2.24,0,0,1-.84-1.13A9.28,9.28,0,0,1,92,82.77V77.59h-1.3v-.36A13.59,13.59,0,0,0,93,75.32a11.68,11.68,0,0,0,1.65-2.25Zm11.78,8h-5.48a4.83,4.83,0,0,0,1.06,3,2.26,2.26,0,0,0,1.77.85,2.07,2.07,0,0,0,1.16-.34,4.39,4.39,0,0,0,1.12-1.24l.36.23A5.85,5.85,0,0,1,105,85.79a4,4,0,0,1-2.27.66,3.83,3.83,0,0,1-3.36-1.64,5.61,5.61,0,0,1-.92-3.28,5.31,5.31,0,0,1,1.35-3.82A4.23,4.23,0,0,1,103,76.29a3.49,3.49,0,0,1,2.63,1.2A5.32,5.32,0,0,1,106.81,81Zm-2.63-.69a9.12,9.12,0,0,0-.19-2.27,1.85,1.85,0,0,0-.58-.93.91.91,0,0,0-.6-.18,1.06,1.06,0,0,0-.91.52,4.35,4.35,0,0,0-.63,2.5v.36Zm8-3.76v1.26a5.69,5.69,0,0,1,1.52-1.21,3.43,3.43,0,0,1,1.53-.34,2.86,2.86,0,0,1,1.61.43,2.72,2.72,0,0,1,1,1.31,6.32,6.32,0,0,1,1.64-1.33,3.5,3.5,0,0,1,1.64-.41,2.7,2.7,0,0,1,1.65.46,2.37,2.37,0,0,1,.85,1.16,7.54,7.54,0,0,1,.24,2.24v3.93a2.72,2.72,0,0,0,.21,1.37,1.29,1.29,0,0,0,.87.35v.37h-5.16V85.8a1.16,1.16,0,0,0,.9-.45,2.63,2.63,0,0,0,.19-1.27V80a7.33,7.33,0,0,0-.11-1.63,1,1,0,0,0-.34-.52.89.89,0,0,0-.54-.17A1.63,1.63,0,0,0,119,78a4.19,4.19,0,0,0-1,1v5.15a2.83,2.83,0,0,0,.18,1.3,1.12,1.12,0,0,0,.94.42v.37H114V85.8a1.17,1.17,0,0,0,.66-.2.86.86,0,0,0,.32-.43,4.52,4.52,0,0,0,.08-1.09V80a7.24,7.24,0,0,0-.11-1.63,1,1,0,0,0-.36-.51.89.89,0,0,0-.54-.18,1.47,1.47,0,0,0-.78.21,4.27,4.27,0,0,0-1.07,1.09v5.15a2.81,2.81,0,0,0,.21,1.34,1.1,1.1,0,0,0,.87.38v.37h-5.15V85.8a1.26,1.26,0,0,0,.9-.39,2.77,2.77,0,0,0,.18-1.33V78.66a2.66,2.66,0,0,0-.21-1.35,1.29,1.29,0,0,0-.87-.35v-.38Zm20.38-.27.16,3.27h-.36a5.14,5.14,0,0,0-1.35-2,2.3,2.3,0,0,0-1.39-.53,1.07,1.07,0,0,0-.75.28.86.86,0,0,0-.31.65.82.82,0,0,0,.21.53A10.22,10.22,0,0,0,130.7,80a7.78,7.78,0,0,1,2.07,1.73,2.73,2.73,0,0,1,.5,1.59,3.26,3.26,0,0,1-.42,1.57A2.86,2.86,0,0,1,131.67,86a3.47,3.47,0,0,1-1.68.41,6,6,0,0,1-1.91-.43,1.64,1.64,0,0,0-.44-.11c-.24,0-.43.17-.59.51h-.35L126.54,83h.36a4.45,4.45,0,0,0,1.32,2,2.58,2.58,0,0,0,1.59.68,1.18,1.18,0,0,0,.84-.3,1,1,0,0,0,.33-.73,1.24,1.24,0,0,0-.32-.85,8.38,8.38,0,0,0-1.43-1.09A11.09,11.09,0,0,1,127.1,81a2.82,2.82,0,0,1-.7-1.86,3,3,0,0,1,.79-2,2.91,2.91,0,0,1,2.3-.9,3.47,3.47,0,0,1,1.57.38,1.07,1.07,0,0,0,.47.15.56.56,0,0,0,.31-.08,2,2,0,0,0,.37-.44Zm20.73,5-.54,4.88H139.92v-.38h.48a2.07,2.07,0,0,0,1-.22,1,1,0,0,0,.43-.49,4.07,4.07,0,0,0,.12-1.29V74.64a4.41,4.41,0,0,0-.12-1.33,1,1,0,0,0-.47-.47,2,2,0,0,0-1-.2h-.48v-.38h7.72v.38H147a2.07,2.07,0,0,0-1,.22,1,1,0,0,0-.44.49,4,4,0,0,0-.12,1.29V83.5a4.29,4.29,0,0,0,.13,1.36.84.84,0,0,0,.5.44,5.35,5.35,0,0,0,1.29.09h1.21a4.22,4.22,0,0,0,1.92-.39,3.52,3.52,0,0,0,1.33-1.23,9.76,9.76,0,0,0,1.06-2.48Zm5.48-8.21v3.51h2.37v1h-2.37v5.92a4.38,4.38,0,0,0,.08,1.07.78.78,0,0,0,.28.39.65.65,0,0,0,.37.15q.69,0,1.31-1l.32.22a2.91,2.91,0,0,1-2.81,2,2.55,2.55,0,0,1-1.61-.51,2.24,2.24,0,0,1-.84-1.13,9.37,9.37,0,0,1-.11-1.89V77.59h-1.3v-.36a13.55,13.55,0,0,0,2.29-1.92,11.69,11.69,0,0,0,1.65-2.25Zm13-.81v11a7.26,7.26,0,0,0,.06,1.32.83.83,0,0,0,.33.5,1.78,1.78,0,0,0,.84.21v.34l-4.22.79V84.94a5.17,5.17,0,0,1-1.35,1.2,2.79,2.79,0,0,1-1.34.32,3.47,3.47,0,0,1-3-1.64,5.73,5.73,0,0,1-.9-3.27,6.65,6.65,0,0,1,.55-2.77,4.19,4.19,0,0,1,1.52-1.85,3.75,3.75,0,0,1,2.08-.63,2.9,2.9,0,0,1,1.27.27,4.23,4.23,0,0,1,1.19.93V74.6a4.94,4.94,0,0,0-.1-1.32.89.89,0,0,0-.38-.44,2.19,2.19,0,0,0-1-.14v-.43Zm-3,6.5a2.27,2.27,0,0,0-1.93-1.46,1,1,0,0,0-.65.21,2.28,2.28,0,0,0-.65,1.12,8.79,8.79,0,0,0-.25,2.45,9.53,9.53,0,0,0,.28,2.69,2.58,2.58,0,0,0,.76,1.26,1,1,0,0,0,.67.2q.94,0,1.77-1.42ZM176.27,83a1.75,1.75,0,0,1,1.26.5,1.63,1.63,0,0,1,.52,1.21,1.6,1.6,0,0,1-.52,1.2,1.76,1.76,0,0,1-1.26.5,1.74,1.74,0,0,1-1.25-.5,1.61,1.61,0,0,1-.52-1.2,1.63,1.63,0,0,1,.52-1.21A1.74,1.74,0,0,1,176.27,83Z" transform="translate(-8.62 -11.01)" fill="#1e487d"/>
</svg>
