<svg xmlns="http://www.w3.org/2000/svg" width="276px" height="126px" viewBox="0 0 2765.91 1262.64">
  <title>kantech-logo-2</title>
  <path d="M2549.5,1.4c-22.2,5.3-38.9,15.7-61.5,38.5-20.6,20.8-40.6,48-59.4,80.9-26.8,46.8-47.1,99.9-54.7,143.2-3.7,20.5-3.6,56.7.1,60.4a4,4,0,0,1,1,2.6c0,.8,1.6,4.8,3.5,8.8,4,8.3,12.1,17.5,19.9,22.4a49.28,49.28,0,0,1,6.3,4.5c2,1.8,16.9,7.3,27.1,9.9,33.2,8.4,82.2,9.6,132.7,3.3,73.7-9.3,142.7-33.7,174.5-61.8a84.91,84.91,0,0,0,24.6-38.1c2.4-7.6,2.8-10.4,3.2-25.5.5-19.7-.6-28.9-5.3-45.5-9.7-33.9-28.7-69-59.1-109-39.3-51.9-75.5-82.4-109.9-92.6-7.4-2.2-11.5-2.7-23-3-9.7-.3-15.9.1-20,1Zm5.1,45.7c34.2,6,68.3,33.6,108.8,87.8,19.8,26.7,37.5,58.5,45,81.1,7.4,22.4,9.6,44.8,6,61.3-2.5,11.4-9.4,24.4-17.6,33.2-31.2,33.4-117.4,60.2-200.4,62.2-33.7.8-62-2.4-80.1-9.3-3.7-1.4-8.2-2.9-9.9-3.3-4.7-1.2-13.4-7.2-18.7-13-9.4-10.1-12.6-21.1-12.7-43.3-.1-61.9,47.3-166.6,100.5-221.7,26.8-27.8,53.4-39.6,79.1-35Zm-376.1,74.6c-18.4,4.1-33.7,13.6-51.6,32-16.9,17.4-30.4,37.1-44.8,65.3-18,35.2-26.1,61.7-26.1,84.9.1,20.6,5.3,33.6,19,47.3,7.8,7.8,10,9.3,21.1,14.7,19.5,9.5,42.8,15.7,74.4,19.8,10.9,1.4,20.8,1.8,45,1.7,33.6,0,46.6-1.1,68.4-6,16.8-3.8,40-12.3,41.3-15.1.1-.4,2.9-2.8,6-5.2a37.88,37.88,0,0,0,13.2-17.5c3.6-10.5,3.9-12.6,3.3-22.9-4.2-67.9-87.6-184.2-142.2-198.2-5.5-1.4-22.1-1.9-27-.8Zm40.6,31.3c39.9,7.5,105.8,90.1,122.6,153.7,2,7.8,2.6,12.3,2.7,22.3.1,11.7-.1,12.8-2.6,17.5-3.7,7-13.7,16.2-19.3,17.8-1.1.3-5.3,1.9-9.4,3.6-33.6,14.1-95,16.8-144.4,6.5-76.4-16-92.2-55.6-53.2-133.5,16.5-32.9,36-58.8,54.7-72.9,17.6-13.3,32.9-18,48.9-15ZM2357,381.9c-15.6,5.5-15.5,5.4-27.5,14.7-17.7,13.6-40.7,40.9-55.8,66.2-19.7,32.9-28,61.2-23.6,80.1,5.5,23.9,32.8,42.5,74.9,51,19.7,3.9,27.2,4.6,51.5,4.5,21.4,0,24.8-.2,31.8-2.2,21.8-6,34.1-17.4,39.3-36.3a115.24,115.24,0,0,0,2.1-16.4c2-37.5-15.8-95.7-40.6-132.7-8.1-12.1-19.4-22.8-28.9-27.5a30.63,30.63,0,0,0-23.2-1.4Zm17.6.6c5.3,1.5,15.7,9.3,18.3,13.6.9,1.4,4.2,6.2,7.3,10.5,6.7,9.2,19.1,33.5,24.3,47.7a268.82,268.82,0,0,1,11,42.1c1.9,11.4,1.9,31.4.1,38.1-4.4,16.6-14.6,26.3-33.1,31.7-7.1,2-10.1,2.3-27,2.3-30.4,0-55.8-5-76-15-27.5-13.5-37-30.7-30.5-55.9,4.5-17.8,18.3-44.2,34-65.1,9-12.1,27.9-31.7,36.2-37.7,3.4-2.4,6.9-5.1,7.9-6,2.5-2.3,5.6-3.9,11.9-5.9,6.8-2.2,9.3-2.3,15.6-.4Z" transform="translate(-1 -0.3)" fill="#1f419b"/>
  <path d="M530,1182.2c0,43.1.4,64.6,1.1,67.3,1.7,6.2,7.3,11,14.3,12.5,5.3,1.1,7.8,1,15.9-.6,2.6-.5,2.7-.7,2.7-7.3v-6.8l-3.8,1c-5.4,1.4-10.8.2-13-3.1-1.6-2.4-1.7-7.6-2-64.4l-.3-61.8H530v63.2Zm314.2-60.7a10.77,10.77,0,0,0,2.5,18c7.6,3.6,15.4-1.4,15.5-10.1.1-4.1-.3-5.1-3.1-7.6a11.39,11.39,0,0,0-14.9-.3Zm-548.4,8.4a35.07,35.07,0,0,0-16.5,10.3c-6.6,6.8-8.8,12.6-8.8,23.3,0,17.6,5.8,24.2,32.4,37.3,23.3,11.5,29.1,16.8,29.1,26.9,0,4.6-2.9,11-6.1,14-10.5,9.6-33.3,8.8-48.2-1.6l-5.7-4-4.6,6c-2.5,3.3-4.4,6.5-4.1,7.2.7,1.9,11,7.7,18.5,10.5,8.2,3,24.8,4.1,34.5,2.2,12.9-2.5,23.5-9.9,28.3-19.7,2.2-4.5,2.9-7.4,3.2-14.4.4-7.8.2-9.3-2.2-14.6-4.3-9.4-10.4-14.2-30.2-23.9-9.5-4.7-19.1-10.2-21.4-12.2-7.6-6.4-9.8-14.7-6.1-22.9,6-13.1,27.8-16,43.3-5.8,2.1,1.4,4.1,2.5,4.5,2.4,1.5-.1,9.5-11,9-12.3-.7-1.9-11.7-7.4-18.2-9.1-8.2-2.1-23.4-1.9-30.7.4ZM1,1195.5V1261H17V1130H1v65.5ZM64,1137v7H99v117h16V1144h35v-14H64v7Zm685.6-3.3c-.2,1-1.2,6.5-2.2,12.3-1.8,11.2-2.6,13-5.5,13a50.58,50.58,0,0,0-6.9,1.1l-5,1.1v9.8h15v32.2c0,17.8.5,35,1,38.3,1.3,8.2,5.3,14.3,11.5,17.4,4.4,2.3,6.1,2.6,16,2.6,8.4,0,12.2-.5,16-1.9a41.53,41.53,0,0,0,5.4-2.2c.4-.4-2.9-10.7-3.8-11.7-.4-.4-2.6-.1-4.8.7-4.2,1.5-7.3,1.9-13.6,1.7-2.8-.1-4.7-1-7.5-3.5l-3.7-3.4-.3-34.6-.3-34.6H789v-13H761v-27h-5.4c-4.4,0-5.6.4-6,1.7ZM422,1158.6c-6.5,1.7-14.8,7-18.4,11.6-6.9,9.1-10.5,23-10.5,40.3,0,36.8,15.1,54.1,45.4,52.2,10.6-.7,18.6-3.7,24.8-9.6,6-5.6,8.9-10.4,11.9-20.1,2-6.6,2.3-9.5,2.3-24s-.3-17.5-2.3-24c-5.9-19.2-18.6-28.1-39.7-27.9a64.61,64.61,0,0,0-13.5,1.5Zm24.8,14.6c5.8,2.7,9.9,8,12.5,16.3,1.8,5.8,2.2,9.3,2.2,21,0,8.4-.5,16.1-1.3,19.2-3.5,13.4-12,19.8-25.5,19.1-8.8-.4-14-2.9-18.4-8.7-4.8-6.2-6.4-12.7-7-27.7-.8-20.4,2.7-32.5,11.3-38,6.9-4.6,18-5.1,26.2-1.2Zm497.7-14.9c-14.6,3.8-24,14.3-28.2,31.4-2.2,9.2-2.2,32.3.1,41.6,3.5,14.7,11,24.3,22.4,28.8,7.6,3,24.9,3.3,33.2.6,11.4-3.8,19.6-12.5,24.1-25.7,2.8-8.1,3.8-32.5,1.9-43.9-2.5-15-11.1-26.7-22.9-31.2-7-2.7-23.1-3.5-30.6-1.6Zm22.8,14.4c5.2,2.1,11,9.1,13.3,16,1.6,4.7,1.9,8.8,1.9,22.3,0,19.5-1.3,24.7-7.9,31.5-5,5.2-10.4,6.9-19.7,6.3-14.4-1.1-21.3-9.2-24-28.6-2.1-14.6.7-33.6,6-41,5.8-8.2,18.9-11,30.4-6.5Zm115.2-14.4a37.58,37.58,0,0,0-13.9,7.8l-3.5,3-1.3-4.8-1.4-4.8-6.2-.3-6.2-.3V1261h16v-73.7l3-4.5c5-7.6,13.1-11.8,22.6-11.8,9,0,14.9,3.6,18.5,11.5,1.7,3.7,1.9,7.1,1.9,41.2V1261h16v-37c0-38.8-.4-44-4.5-52-5.1-9.9-13.1-14.2-27.5-14.7-6-.2-11,.2-13.5,1Zm122.9-.3c-9.9,2.1-17.7,7.4-21.8,14.9-5.7,10.5-4.3,23.4,3.5,31.2,4.5,4.5,8.4,6.6,22.1,11.9,17.8,7,21.8,10.4,21.8,18.9,0,3.1-.7,4.9-3.1,7.6-4,4.5-5.8,5.4-12.2,6.5-9.7,1.5-21.7-1.9-29.5-8.5l-3-2.5-4.6,5.3c-2.5,3-4.6,5.9-4.6,6.5,0,1.6,10.4,8.1,16.8,10.4,4.6,1.7,8.1,2.2,17.7,2.2,13.5.1,18.1-.9,25.1-5.7,10.2-6.8,14.8-17.2,12.5-28.6s-8.7-17.1-28-24.6c-17.8-6.9-22.7-10.9-22.5-18.6.4-13.8,22.4-18.8,36.2-8.3l3.4,2.6,4.9-4.8c2.7-2.6,4.9-5.3,4.9-6,0-1.7-6.9-6.2-13.1-8.6s-19.8-3.3-26.5-1.8Zm-597.2,40.7c.3,36,.5,40.3,2.2,45.1,2.6,7,8.3,13.4,14.8,16.3,4.6,2.1,6.8,2.4,16.8,2.4,12.9,0,16.9-1.3,24.8-8.1l4.1-3.5,1,3.8a31.38,31.38,0,0,1,1.1,5c0,.9,2,1.3,6.5,1.3H686V1159H670.1l-.3,37.9-.3,37.9-3,4.4c-4,5.6-8.3,8.4-15.3,9.9-10.8,2.2-20.8-1.7-24.8-9.8-1.7-3.5-1.9-6.9-2.2-42.1l-.3-38.2h-16l.3,39.7ZM844,1210v51h16V1159H844v51Z" transform="translate(-1 -0.3)"/>
  <path d="M1028.7,494.7c-.4.3-.7,32.7-.7,72V638H957v72h71l.2,132.2.3,132.3,2.3,7c4.1,12.1,9.1,20.4,17.2,28.5,15.1,15.2,32.2,20.7,67.8,21.7l20.2.6V960h-13.4c-7.3,0-15.4-.3-18-.6l-4.6-.7V710h108V638H1100V494h-35.3c-19.5,0-35.7.3-36,.7ZM1976,763v269h71.9l.3-123.8c.4-139.4-.3-127.5,8.3-145.9,7.7-16.4,17.2-27.7,31.5-37.2,16.7-11.2,32.8-15.7,53-14.8,15,.6,23.6,2.9,36.4,9.5,27.4,14.1,45.2,39.9,48.5,70.4.7,6.3,1.1,50.3,1.1,125.8v116h72V911.7c0-73.8-.4-123.7-1-129.2-4.4-38.8-19.2-69.8-46.4-97.1-24.2-24.1-50.6-38.3-84.1-45.1-12.9-2.6-50.3-2.6-62.5,0-17.6,3.8-36.1,10.9-50.1,19.3a38.76,38.76,0,0,1-6.3,3.4c-.3,0-.6-38-.6-84.5V494h-72V763ZM1392,639.6a198.36,198.36,0,0,0-140,92.5c-37.4,61.3-38,141.3-1.6,203.2a203.54,203.54,0,0,0,61.2,64.5c23.2,15.5,51.6,26.3,80.6,30.6,13.6,2,42.7,2.1,56.7.1,63.7-9.1,118.5-48.3,148.5-106.4,6-11.6,14.6-31.8,14.6-34.2,0-1.8-1.3-1.9-38.8-1.9h-38.7l-5.2,8.7c-18.8,32-48,53.1-84.3,60.9-11.8,2.5-36.2,2.5-48,0a155.59,155.59,0,0,1-31.5-10.8c-33-16.5-61.3-51.5-67.4-83.3-.7-3.3-1.4-7-1.7-8.3l-.4-2.2h322.3l-.6-19.3c-1.4-48.5-15.2-88.1-42.6-122.2-32-39.9-75-64.8-124.2-72-13.3-1.9-45.5-1.9-58.9.1Zm48.8,71.9a130.29,130.29,0,0,1,52.1,21.2c14,9.9,31.3,28.7,39.1,42.5l3.2,5.8H1306.8l2.7-4.8c19.4-33.5,54-58.1,91-64.6,10.7-1.9,28.9-1.9,40.3-.1Zm365.7-71.9c-64.8,9.8-119.6,49.5-148,106.9a199.53,199.53,0,0,0,0,177c28.5,57.6,84.4,97.9,148.6,107,21.1,3,51.5,1.5,72.3-3.4,25.7-6.2,55.7-20.6,74.4-35.8l4.2-3.4V936.4c0-48.3-.1-51.4-1.7-51.3-1,0-7,5.9-13.3,13.1-27.2,30.8-36.8,39.4-54.8,48.4-19.1,9.5-33.3,12.8-55.2,12.9-16.9,0-24.3-1.1-38.4-5.7-19.3-6.2-34.4-15.6-49.7-30.8-19.3-19-30.9-41-35.5-67-1.9-11.1-1.9-31.1.1-42.4,10.3-58.8,63.6-103.6,123-103.6,18.7,0,36.7,4.4,55,13.5,17.9,8.8,26.1,15.7,48.9,41,10.4,11.5,19.5,21.1,20.2,21.3,1.2.3,1.4-8.1,1.4-51.7v-52l-4.2-3.4c-23.9-19.4-59.6-34.4-92.9-39.2-13-1.8-42.2-1.8-54.4.1Z" transform="translate(-1 -0.3)" fill="#28c0da"/>
  <path d="M1,763v269H73V894.5l68.8,68.8,68.7,68.7h50.3c39.4,0,50.2-.3,50.2-1.2,0-.7-43.8-45.1-97.2-98.5L116.5,835l97.3-97.3c53.4-53.4,97.2-97.8,97.2-98.5,0-.9-10.7-1.2-49.9-1.2h-50l-69,68.6L73,775.2V494H1V763ZM370,639.7c.1,1,6.3,17.1,13.9,35.8l13.8,34,31.4.6c34.8.6,37,.9,50.5,7.6a73.38,73.38,0,0,1,35.9,40.4l1.4,3.8-7.5-3.4a171.35,171.35,0,0,0-34.9-11.1c-12.5-2.5-39.5-2.5-52,0C363.9,759,320.4,801.3,307.9,859c-3.1,14.1-3.4,43.9-.6,57,6.6,30.8,18.4,52.8,39.6,74.1,21,21.1,43.9,33.4,74.6,40.1,9.7,2.1,46,1.8,56-.6a168.6,168.6,0,0,0,32.4-10.7c4.6-2.2,8.5-3.9,8.7-3.9s.4,3.8.4,8.5v8.5h73.1l-.4-134.8c-.4-149.6,0-140.2-7.2-161.9a143.94,143.94,0,0,0-43.8-64.2c-15.2-12.7-28-19.9-46.6-26.1-19.5-6.5-24.5-7-77.3-7-43.9,0-46.8.1-46.8,1.7ZM468,810a83.15,83.15,0,0,1,59.6,64.8c6,31.6-8.2,63.9-36.1,82.2-14.1,9.1-27.4,13-45,13-12.8,0-22.9-2.4-35-8.4A83.11,83.11,0,0,1,369,911.5c-3.1-9.9-3.9-28.5-1.6-38.9a84.25,84.25,0,0,1,44.1-56.8A80.89,80.89,0,0,1,468,810Zm150,25v197h71.9l.3-123.3.3-123.2,2.2-8a114,114,0,0,1,16.1-32.6c12.8-16.8,32.5-29.1,54-33.6,10.4-2.1,29.8-1.3,40.2,1.7,30.9,8.9,54.8,33.5,63.2,65.3,2.2,8.2,2.2,8.3,2.5,130.9l.4,122.8h72l-.3-127.3-.3-127.2-2.3-10.8c-13.4-63.2-60.4-110.8-123.7-125.3-10.2-2.3-14.9-2.8-31-3.2s-20.8-.1-31.4,1.7c-19.4,3.3-40.9,11.1-56.3,20.5l-5.8,3.5V638H618V835Z" transform="translate(-1 -0.3)" fill="#1f419b"/>
</svg>
