<svg xmlns="http://www.w3.org/2000/svg" width="288px" height="72px" viewBox="0 0 288 72">
  <title>MyanmarGateway LOGO</title>
  <path d="M69,56.61H67.85V47.44H69Zm5.08,0H72.93V48.45H70.3v-1h6.42v1H74.08Zm13.53,0H86.43l-.92-2.68H82.1l-.82,2.68h-1l3-9.17h1.3Zm-2.34-3.54-1.42-4.4-1.42,4.4Zm8.7.46,1,.24q-.75,3-3.4,3a3.17,3.17,0,0,1-2.73-1.4,5.84,5.84,0,0,1-1-3.46,5.25,5.25,0,0,1,1-3.4,3.39,3.39,0,0,1,2.78-1.28q2.58,0,3.32,2.95l-1.08.21q-.59-2.19-2.24-2.19a2.13,2.13,0,0,0-1.89,1,5.16,5.16,0,0,0-.67,2.86,4.76,4.76,0,0,0,.69,2.7,2.1,2.1,0,0,0,1.82,1Q93.39,55.82,94,53.53Zm8.66,3.08h-1.17l-.92-2.68H97.11l-.82,2.68h-1l3-9.17h1.3Zm-2.34-3.54-1.42-4.4-1.42,4.4Zm3.55,3.54V47.44h3.08a3.7,3.7,0,0,1,3,1.32A5,5,0,0,1,111,52,5.11,5.11,0,0,1,110,55.28a3.27,3.27,0,0,1-2.68,1.33Zm1.15-1h1.86a2.63,2.63,0,0,0,2.25-1,4.37,4.37,0,0,0,.77-2.69,4.26,4.26,0,0,0-.73-2.44,2.56,2.56,0,0,0-2.28-1.08H105Zm13.7,0v1h-5.94V47.44h5.81v1h-4.66v2.91h3.7v.93h-3.7v3.3Zm10.51,1h-1.12v-8l-3,8h-.78l-3-8v8h-1V47.44H122l2.77,7.33,2.71-7.33h1.68Zm8.31-9.17-3.07,5.31v3.85h-1.15V52.75l-3.07-5.31h1.36L134,51.66l2.45-4.21Zm5.62,9.17H142V47.44h3.25a2.84,2.84,0,0,1,2.25.83,2.79,2.79,0,0,1,.72,1.89,2.62,2.62,0,0,1-.79,2,2.84,2.84,0,0,1-2.07.77h-2.23Zm0-4.67h2.11a1.79,1.79,0,0,0,1.31-.49,1.71,1.71,0,0,0,.5-1.29,1.87,1.87,0,0,0-.44-1.22,1.58,1.58,0,0,0-1.29-.54h-2.19Zm13.14,4.67h-1.21l-1.69-4h-2.63v4h-1.08V47.44h3.62a2.77,2.77,0,0,1,2.18.8,2.6,2.6,0,0,1,.71,1.76,2.72,2.72,0,0,1-.4,1.4,2.21,2.21,0,0,1-1.31,1Zm-5.53-4.9h2.4a1.85,1.85,0,0,0,1.42-.5A1.73,1.73,0,0,0,155,50a1.37,1.37,0,0,0-.49-1.13,1.91,1.91,0,0,0-1.25-.4h-2.54Zm10.34,5.09a3.2,3.2,0,0,1-2.76-1.37,5.61,5.61,0,0,1-1-3.37,5.51,5.51,0,0,1,1-3.44,3.46,3.46,0,0,1,5.48,0,5.35,5.35,0,0,1,1,3.36,5.82,5.82,0,0,1-1,3.4A3.2,3.2,0,0,1,161.07,56.79Zm0-.93a2.11,2.11,0,0,0,1.88-1.1,5.28,5.28,0,0,0,.68-2.82,4.71,4.71,0,0,0-.7-2.76,2.18,2.18,0,0,0-1.87-1,2.13,2.13,0,0,0-1.87,1.07,5.07,5.07,0,0,0-.69,2.8,4.89,4.89,0,0,0,.7,2.75A2.14,2.14,0,0,0,161.1,55.86ZM173.41,52v4.75h-.7l-.32-1.15a2.88,2.88,0,0,1-2.52,1.21A3.32,3.32,0,0,1,167,55.43a5.41,5.41,0,0,1-1-3.31,5.53,5.53,0,0,1,1.07-3.47A3.47,3.47,0,0,1,170,47.25a3.23,3.23,0,0,1,3.31,2.66l-1.09.26a2.4,2.4,0,0,0-.88-1.48,2.36,2.36,0,0,0-1.41-.46,2.16,2.16,0,0,0-2,1.09,5.34,5.34,0,0,0-.65,2.75,4.7,4.7,0,0,0,.72,2.79,2.29,2.29,0,0,0,2,1,2.21,2.21,0,0,0,1.62-.64,2.38,2.38,0,0,0,.65-1.77c0-.14,0-.31,0-.5H170V52Zm8.72,4.62h-1.2l-1.69-4H176.6v4h-1.08V47.44h3.62a2.76,2.76,0,0,1,2.18.8A2.59,2.59,0,0,1,182,50a2.73,2.73,0,0,1-.4,1.4,2.21,2.21,0,0,1-1.31,1Zm-5.53-4.9H179a1.86,1.86,0,0,0,1.42-.5,1.74,1.74,0,0,0,.47-1.23,1.37,1.37,0,0,0-.49-1.13,1.91,1.91,0,0,0-1.25-.4H176.6Zm13.55,4.9H189L188,53.93h-3.41l-.82,2.68h-1l3-9.17h1.3Zm-2.34-3.54-1.42-4.4L185,53.07Zm12.42,3.54H199.1v-8l-3,8h-.78l-3-8v8h-1V47.44h1.7l2.77,7.33,2.71-7.33h1.68Zm11.16,0h-1.12v-8l-3,8h-.78l-3-8v8h-1V47.44h1.7L207,54.77l2.71-7.33h1.68Zm8.23-1v1h-5.94V47.44h5.81v1h-4.66v2.91h3.7v.93h-3.7v3.3Z" fill="#ec2027"/>
  <path d="M20.67,42.84h4.28L23.88,23.51H18.17l-2.07,6.43c-.63,2.15-1.29,4.71-1.84,6.94h-.09c-.43-2.27-1-4.71-1.64-6.91l-1.9-6.45H4.8L3.56,42.84H7.62L8,35.49c.15-2.4.23-5.39.35-8h.06c.46,2.52,1.13,5.28,1.75,7.58l2.07,7.45h3.42L18,35c.74-2.27,1.55-5,2.15-7.49h.09c0,2.82.09,5.62.17,7.94Zm5.92-14,5.14,12.83a1.61,1.61,0,0,1,.2.71,1.18,1.18,0,0,1-.23.64,5,5,0,0,1-1.81,1.75,5.45,5.45,0,0,1-1.9.75l.92,3.7a8.08,8.08,0,0,0,4.22-1.93c1.58-1.4,2.93-3.64,4.94-9.21l3.28-9.24H36.67L34.95,35.7c-.2.79-.43,1.86-.63,2.61h-.08c-.18-.75-.46-1.77-.69-2.61l-2.1-6.89Zm28.13,5.74c0-3.3-1.49-6.05-6.18-6.05a11.58,11.58,0,0,0-5.46,1.23l.8,2.81a8,8,0,0,1,3.88-1.06c2.16,0,2.56,1.06,2.56,1.81v.2c-5,0-8.25,1.72-8.25,5.37a4.31,4.31,0,0,0,4.54,4.31,5.09,5.09,0,0,0,4-1.73h.08L51,42.84h3.94a21.88,21.88,0,0,1-.2-3.42Zm-4.25,3.18a3.09,3.09,0,0,1-.09.75,2.39,2.39,0,0,1-2.27,1.6,1.56,1.56,0,0,1-1.73-1.66c0-1.7,1.78-2.24,4.08-2.21Zm7.7,5.11h4.36V34.75a3,3,0,0,1,.17-1.09A2.33,2.33,0,0,1,64.92,32c1.58,0,2.21,1.24,2.21,3v7.77H71.5V34.52c0-4.13-2.16-6-5-6a5.13,5.13,0,0,0-4.34,2.24H62l-.2-1.93H58.06c.05,1.23.12,2.73.12,4.48Zm16.84,0h4.25V34.67a3,3,0,0,1,.17-1.1,2.23,2.23,0,0,1,2-1.57c1.38,0,2,1.21,2,3v7.86h4.25v-8.2a3.68,3.68,0,0,1,.17-1.13,2.13,2.13,0,0,1,2-1.52C91.33,32,92,33.18,92,35.21v7.64h4.25V34.58c0-4.19-2-6.08-4.74-6.08a5.12,5.12,0,0,0-2.67.69A5.91,5.91,0,0,0,87,30.88H87a4,4,0,0,0-3.85-2.39,4.87,4.87,0,0,0-4.25,2.2h-.09l-.2-1.89H74.9C75,30,75,31.54,75,33.29Zm36.43-8.29c0-3.3-1.49-6.05-6.17-6.05a11.57,11.57,0,0,0-5.46,1.23l.8,2.81a8,8,0,0,1,3.88-1.06c2.16,0,2.56,1.06,2.56,1.81v.2c-5,0-8.25,1.72-8.25,5.37a4.31,4.31,0,0,0,4.54,4.31,5.07,5.07,0,0,0,4-1.73h.09l.26,1.41h3.94a21.33,21.33,0,0,1-.21-3.42Zm-4.25,3.18a3,3,0,0,1-.09.75,2.38,2.38,0,0,1-2.27,1.6,1.56,1.56,0,0,1-1.72-1.66c0-1.7,1.78-2.24,4.08-2.21Zm7.7,5.11h4.37V35.73a5.38,5.38,0,0,1,.08-1,2.82,2.82,0,0,1,3-2.21,4.54,4.54,0,0,1,1.18.15V28.55a4.62,4.62,0,0,0-.92-.06,4.12,4.12,0,0,0-3.79,2.9h-.12l-.14-2.59h-3.76c.05,1.21.12,2.56.12,4.63Zm27.24-11h-7.21v3.41h3v4a5.79,5.79,0,0,1-2.15.29c-3.59,0-6.09-2.34-6.09-6.31,0-4.21,2.76-6.29,6.41-6.29a10.61,10.61,0,0,1,4.51.84l.92-3.5a13.32,13.32,0,0,0-5.37-1c-6.35,0-11,3.67-11.07,10.13a9.28,9.28,0,0,0,2.73,7c1.78,1.73,4.34,2.62,7.87,2.62a21.34,21.34,0,0,0,6.46-1.1Zm15.23,2.75c0-3.3-1.49-6.05-6.18-6.05a11.59,11.59,0,0,0-5.46,1.23l.8,2.81a8,8,0,0,1,3.88-1.06c2.16,0,2.56,1.06,2.56,1.81v.2c-5,0-8.24,1.72-8.24,5.37a4.31,4.31,0,0,0,4.54,4.31,5.09,5.09,0,0,0,4-1.73h.08l.26,1.41h3.94a22,22,0,0,1-.2-3.42Zm-4.25,3.18a3,3,0,0,1-.09.75,2.38,2.38,0,0,1-2.27,1.6A1.56,1.56,0,0,1,149,38.43c0-1.7,1.78-2.24,4.08-2.21Zm8.07-11.56v2.63h-1.87V32h1.87v5.73c0,2,.41,3.33,1.21,4.16a4.54,4.54,0,0,0,3.28,1.24,8.16,8.16,0,0,0,2.84-.41l0-3.29a5.72,5.72,0,0,1-1.29.11c-1.32,0-1.72-.78-1.72-2.47V32h3.13V28.81h-3.13V25Zm22.22,11a11.23,11.23,0,0,0,.14-1.73c0-3.47-1.72-7-6.26-7-4.89,0-7.1,3.93-7.1,7.49,0,4.39,2.73,7.18,7.5,7.18a13.85,13.85,0,0,0,5.09-.89l-.58-3a12.4,12.4,0,0,1-3.88.57c-2,0-3.82-.87-4-2.67Zm-9.08-3A2.87,2.87,0,0,1,177,31.4c2,0,2.47,1.78,2.47,2.85Zm10.23-5.43,4.08,14h4.11l1.41-4.94a31.79,31.79,0,0,0,.92-4.36h.06c.29,1.76.54,3,.89,4.36l1.32,4.94h4.11l4.31-14h-4.28l-1.21,5.57c-.31,1.61-.6,3.18-.8,4.79h-.06c-.29-1.61-.66-3.18-1-4.76L197,28.81h-3.45L192,34.58c-.35,1.38-.75,3-1,4.59h-.05c-.23-1.61-.52-3.18-.8-4.62L189,28.81Zm34.77,5.74c0-3.3-1.49-6.05-6.18-6.05a11.57,11.57,0,0,0-5.46,1.23l.8,2.81a8,8,0,0,1,3.88-1.06c2.15,0,2.56,1.06,2.56,1.81v.2c-5,0-8.25,1.72-8.25,5.37a4.31,4.31,0,0,0,4.54,4.31,5.07,5.07,0,0,0,4-1.73h.09l.26,1.41h3.94a21.66,21.66,0,0,1-.2-3.42Zm-4.25,3.18a3,3,0,0,1-.09.75,2.38,2.38,0,0,1-2.27,1.6A1.56,1.56,0,0,1,211,38.43c0-1.7,1.78-2.24,4.08-2.21Zm5.78-8.92L226,41.63a1.61,1.61,0,0,1,.2.71A1.13,1.13,0,0,1,226,43a5,5,0,0,1-1.81,1.75,5.42,5.42,0,0,1-1.9.75l.92,3.7a8.08,8.08,0,0,0,4.22-1.93c1.58-1.4,2.94-3.64,4.95-9.21l3.27-9.24h-4.68l-1.73,6.89c-.2.79-.43,1.86-.63,2.61h-.09c-.17-.75-.46-1.77-.69-2.61l-2.1-6.89Z" fill="#221f20"/>
  <path d="M269.11,24.26a16,16,0,0,1,9.44,1.54,10.71,10.71,0,0,1,4.09,3.91A12.62,12.62,0,0,1,284.35,35,21.11,21.11,0,0,1,281.54,47h0a24.24,24.24,0,0,1-4.18,5.52,23.48,23.48,0,0,1-16.56,6.74h0a23.81,23.81,0,0,1-16.74-6.81,23,23,0,0,1-7-16.47h0a23,23,0,0,1,7-16.49,23.83,23.83,0,0,1,16.74-6.8h0a24,24,0,0,1,6.48.88c.38.1.71.2,1,.29a24,24,0,0,1,4.81,2.19l-2.37,4a19.32,19.32,0,0,0-3.86-1.76L266,18a19.52,19.52,0,0,0-5.25-.71h0a19.22,19.22,0,0,0-13.5,5.49A18.43,18.43,0,0,0,241.71,36h0a18.4,18.4,0,0,0,5.58,13.19,19.2,19.2,0,0,0,13.5,5.49h0a18.92,18.92,0,0,0,13.32-5.4,20,20,0,0,0,1.84-2.09,19.72,19.72,0,0,0,1.53-2.36h0a16.46,16.46,0,0,0,2.27-9.38,8,8,0,0,0-1.06-3.35,6.13,6.13,0,0,0-2.36-2.24,7.48,7.48,0,0,0-1.29-.56c-3.09-.54-5.42.1-7.11,1.74-3-2.84-6.86-2.49-9.68.19V29.46h-3.88V42.71h4.19V34.82c0-4.22,5.52-4.24,5.52-.56v8.45h4.3v-7.3c.1-1.72.75-3,2-3.47a3.26,3.26,0,0,1,3.8,1.67c1.15,1.89.86,4.66.1,7.56A14.14,14.14,0,1,1,261.08,22a15.37,15.37,0,0,1,8,2.3Z" fill="#179dd9"/>
  <path d="M277.05,18h0a2.23,2.23,0,0,1,1.6.66,2.26,2.26,0,0,1,.66,1.6h0a2.26,2.26,0,0,1-2.26,2.26h0a2.29,2.29,0,0,1-1.6-.66,2.26,2.26,0,0,1-.66-1.6h0A2.25,2.25,0,0,1,277.05,18Zm0,.36h0a1.89,1.89,0,0,0-1.9,1.89h0a1.91,1.91,0,0,0,1.9,1.89h0a1.89,1.89,0,0,0,1.34-.56,1.86,1.86,0,0,0,.55-1.33h0a1.91,1.91,0,0,0-.55-1.34,1.93,1.93,0,0,0-1.34-.55Zm-.89,3V19.17h.95a1.47,1.47,0,0,1,.52.06.5.5,0,0,1,.26.21.61.61,0,0,1,.09.35.56.56,0,0,1-.15.41.71.71,0,0,1-.44.21.83.83,0,0,1,.24.19,1.93,1.93,0,0,1,.26.36l.27.43h-.53l-.33-.49a3.89,3.89,0,0,0-.24-.32.27.27,0,0,0-.13-.09.68.68,0,0,0-.23,0h-.09v.92Zm.45-1.28h.33a1.68,1.68,0,0,0,.41,0,.26.26,0,0,0,.12-.09.27.27,0,0,0,0-.16.25.25,0,0,0-.06-.18.26.26,0,0,0-.17-.09h-.68Z" fill="#221f20"/>
</svg>
