<?xml version="1.0" encoding="UTF-8"?>
<svg width="700px" height="220px" viewBox="0 0 700 220" version="1.1" xmlns="http://www.w3.org/2000/svg" xmlns:xlink="http://www.w3.org/1999/xlink">
    <!-- Generator: Sketch 49.2 (51160) - http://www.bohemiancoding.com/sketch -->
    <g stroke="none" stroke-width="1" fill="none" fill-rule="evenodd">
        <path d="M502.731111,190.849604 L499.256815,190.849604 L499.256815,202.08971 C499.256815,202.737031 499.110267,203.217237 498.817167,203.530343 C498.524066,203.843449 498.145186,204 497.680514,204 C497.208694,204 496.824452,203.84169 496.527777,203.525066 C496.231102,203.208442 496.082767,202.729994 496.082767,202.08971 L496.082767,190.849604 L492.60847,190.849604 C492.065162,190.849604 491.661261,190.731751 491.396756,190.496042 C491.132251,190.260333 491,189.948991 491,189.562005 C491,189.160948 491.137612,188.844328 491.412841,188.612137 C491.688069,188.379946 492.086609,188.263852 492.60847,188.263852 L502.731111,188.263852 C503.281569,188.263852 503.690831,188.383464 503.958911,188.622691 C504.22699,188.861919 504.361028,189.17502 504.361028,189.562005 C504.361028,189.948991 504.225203,190.260333 503.953549,190.496042 C503.681895,190.731751 503.27442,190.849604 502.731111,190.849604 Z M520.340217,190.680739 L513.166439,190.680739 L513.166439,194.480211 L519.771891,194.480211 C520.258009,194.480211 520.620805,194.58751 520.860289,194.802111 C521.099774,195.016712 521.219515,195.29991 521.219515,195.651715 C521.219515,196.00352 521.101561,196.290236 520.865651,196.511873 C520.629741,196.73351 520.265158,196.844327 519.771891,196.844327 L513.166439,196.844327 L513.166439,201.245383 L520.586849,201.245383 C521.087265,201.245383 521.464358,201.359717 521.71814,201.588391 C521.971923,201.817064 522.098812,202.12137 522.098812,202.501319 C522.098812,202.867196 521.971923,203.164467 521.71814,203.39314 C521.464358,203.621813 521.087265,203.736148 520.586849,203.736148 L511.933278,203.736148 C511.239845,203.736148 510.741224,203.584874 510.437401,203.282322 C510.133577,202.97977 509.981667,202.490769 509.981667,201.815303 L509.981667,190.184697 C509.981667,189.734386 510.04958,189.366756 510.185407,189.081794 C510.321234,188.796832 510.533907,188.589271 510.823434,188.459103 C511.11296,188.328935 511.482904,188.263852 511.933278,188.263852 L520.340217,188.263852 C520.847782,188.263852 521.224875,188.374669 521.471508,188.596306 C521.718142,188.817943 521.841456,189.108178 521.841456,189.467018 C521.841456,189.832895 521.718142,190.126648 521.471508,190.348285 C521.224875,190.569922 520.847782,190.680739 520.340217,190.680739 Z M541.756037,198.849604 C541.756037,199.342131 541.632722,199.875107 541.386089,200.448549 C541.139455,201.021991 540.751639,201.58487 540.222628,202.137203 C539.693618,202.689537 539.018067,203.138081 538.195955,203.48285 C537.373844,203.827618 536.41592,204 535.322155,204 C534.492895,204 533.738708,203.922604 533.059573,203.76781 C532.380438,203.613016 531.763863,203.372033 531.209832,203.044855 C530.6558,202.717676 530.146457,202.286722 529.681785,201.751979 C529.267155,201.266488 528.913295,200.722958 528.620194,200.121372 C528.327094,199.519786 528.107272,198.877752 527.960722,198.195251 C527.814171,197.512749 527.740897,196.788043 527.740897,196.021108 C527.740897,194.775719 527.924976,193.660515 528.293139,192.675462 C528.661302,191.690408 529.188517,190.847849 529.874801,190.147757 C530.561086,189.447666 531.365313,188.91469 532.287507,188.548813 C533.209702,188.182936 534.192646,188 535.23637,188 C536.508855,188 537.641922,188.249778 538.635604,188.74934 C539.629286,189.248903 540.390621,189.866311 540.919632,190.601583 C541.448643,191.336855 541.713144,192.031659 541.713144,192.686016 C541.713144,193.044857 541.584468,193.361476 541.327111,193.635884 C541.069755,193.910292 540.758787,194.047493 540.394198,194.047493 C539.986717,194.047493 539.681111,193.952508 539.47737,193.762533 C539.27363,193.572558 539.046659,193.245385 538.796451,192.781003 C538.381821,192.014068 537.893923,191.440635 537.332743,191.060686 C536.771563,190.680737 536.079927,190.490765 535.257816,190.490765 C533.949587,190.490765 532.907666,190.979766 532.132022,191.957784 C531.356378,192.935801 530.968561,194.325409 530.968561,196.126649 C530.968561,197.329821 531.14013,198.330691 531.483272,199.129288 C531.826414,199.927884 532.312525,200.524184 532.941618,200.918206 C533.570712,201.312227 534.307027,201.509235 535.150585,201.509235 C536.06563,201.509235 536.839475,201.285842 537.472144,200.83905 C538.104812,200.392258 538.581987,199.736152 538.903682,198.870712 C539.03951,198.462619 539.207504,198.130168 539.40767,197.873351 C539.607836,197.616533 539.929527,197.488127 540.372752,197.488127 C540.751638,197.488127 541.076903,197.618292 541.348558,197.878628 C541.620212,198.138963 541.756037,198.462619 541.756037,198.849604 Z M551.558699,189.899736 L551.558699,194.332454 L558.43223,194.332454 L558.43223,189.899736 C558.43223,189.266488 558.576991,188.791558 558.866517,188.474934 C559.156043,188.15831 559.536711,188 560.008531,188 C560.4875,188 560.875316,188.156551 561.171991,188.469657 C561.468666,188.782763 561.617001,189.259452 561.617001,189.899736 L561.617001,202.08971 C561.617001,202.729994 561.466879,203.208442 561.16663,203.525066 C560.86638,203.84169 560.480351,204 560.008531,204 C559.529562,204 559.147107,203.839931 558.861155,203.519789 C558.575204,203.199647 558.43223,202.722958 558.43223,202.08971 L558.43223,196.886544 L551.558699,196.886544 L551.558699,202.08971 C551.558699,202.729994 551.408577,203.208442 551.108327,203.525066 C550.808078,203.84169 550.422049,204 549.950229,204 C549.47126,204 549.088805,203.839931 548.802853,203.519789 C548.516901,203.199647 548.373928,202.722958 548.373928,202.08971 L548.373928,189.899736 C548.373928,189.266488 548.515114,188.791558 548.797492,188.474934 C549.079869,188.15831 549.464111,188 549.950229,188 C550.429198,188 550.817014,188.156551 551.113689,188.469657 C551.410364,188.782763 551.558699,189.259452 551.558699,189.899736 Z M572.920903,189.878628 L579.043814,198.997361 L579.043814,189.794195 C579.043814,189.196127 579.174277,188.747583 579.435208,188.448549 C579.696139,188.149515 580.048212,188 580.491437,188 C580.94896,188 581.309969,188.149515 581.574474,188.448549 C581.83898,188.747583 581.97123,189.196127 581.97123,189.794195 L581.97123,201.963061 C581.97123,203.321027 581.399335,204 580.255528,204 C579.969577,204 579.712224,203.959543 579.483463,203.878628 C579.254701,203.797713 579.040241,203.669306 578.840074,203.493404 C578.639908,203.317501 578.454042,203.111699 578.282471,202.875989 C578.1109,202.64028 577.939332,202.399298 577.767761,202.153034 L571.794974,193.139842 L571.794974,202.205805 C571.794974,202.796837 571.655574,203.243622 571.376771,203.546174 C571.097968,203.848726 570.740534,204 570.304458,204 C569.854084,204 569.493075,203.846967 569.221421,203.540897 C568.949767,203.234827 568.813942,202.789801 568.813942,202.205805 L568.813942,190.269129 C568.813942,189.76253 568.871131,189.364997 568.985512,189.076517 C569.121339,188.759893 569.346523,188.50132 569.661069,188.300792 C569.975616,188.100263 570.315179,188 570.679767,188 C570.965719,188 571.210562,188.045734 571.414302,188.137203 C571.618043,188.228672 571.79676,188.351802 571.950459,188.506596 C572.104158,188.66139 572.261429,188.861916 572.422277,189.108179 C572.583125,189.354443 572.749332,189.611256 572.920903,189.878628 Z M596.10604,188 C597.735965,188 599.13532,188.325415 600.304148,188.976253 C601.472976,189.627092 602.357626,190.552325 602.958124,191.751979 C603.558623,192.951633 603.858868,194.36059 603.858868,195.978892 C603.858868,197.175028 603.694448,198.262088 603.365603,199.240106 C603.036759,200.218123 602.5435,201.065959 601.885811,201.783641 C601.228122,202.501323 600.42032,203.05013 599.462382,203.430079 C598.504443,203.810028 597.40712,204 596.170379,204 C594.940786,204 593.839889,203.804751 592.867653,203.414248 C591.895417,203.023745 591.084041,202.473179 590.433501,201.762533 C589.78296,201.051887 589.291488,200.197015 588.959069,199.197889 C588.62665,198.198764 588.460444,197.118739 588.460444,195.957784 C588.460444,194.768684 588.633799,193.678105 588.980516,192.686016 C589.327232,191.693926 589.829427,190.849608 590.487116,190.153034 C591.144805,189.456461 591.945458,188.923485 592.889099,188.55409 C593.83274,188.184695 594.905043,188 596.10604,188 Z M600.631204,195.957784 C600.631204,194.824972 600.445338,193.843452 600.0736,193.013193 C599.701863,192.182933 599.171073,191.554971 598.481215,191.129288 C597.791356,190.703604 596.999639,190.490765 596.10604,190.490765 C595.469797,190.490765 594.881818,190.608618 594.342084,190.844327 C593.80235,191.080036 593.337685,191.423041 592.948076,191.873351 C592.558467,192.323661 592.251073,192.898853 592.025886,193.598945 C591.800699,194.299036 591.688108,195.085308 591.688108,195.957784 C591.688108,196.837296 591.800699,197.632362 592.025886,198.343008 C592.251073,199.053654 592.56919,199.642918 592.980246,200.110818 C593.391301,200.578718 593.863115,200.928759 594.3957,201.16095 C594.928285,201.393141 595.51269,201.509235 596.148932,201.509235 C596.963895,201.509235 597.71272,201.308709 598.39543,200.907652 C599.078139,200.506594 599.621439,199.887427 600.025346,199.050132 C600.429253,198.212837 600.631204,197.182064 600.631204,195.957784 Z M613.436344,189.899736 L613.436344,201.16095 L619.891673,201.16095 C620.406386,201.16095 620.801351,201.28408 621.076579,201.530343 C621.351808,201.776606 621.48942,202.08619 621.48942,202.459103 C621.48942,202.839052 621.353595,203.146877 621.081941,203.382586 C620.810287,203.618295 620.413534,203.736148 619.891673,203.736148 L612.203184,203.736148 C611.509751,203.736148 611.01113,203.584874 610.707306,203.282322 C610.403482,202.97977 610.251573,202.490769 610.251573,201.815303 L610.251573,189.899736 C610.251573,189.266488 610.396334,188.791558 610.68586,188.474934 C610.975386,188.15831 611.356053,188 611.827874,188 C612.306843,188 612.694659,188.156551 612.991334,188.469657 C613.288009,188.782763 613.436344,189.259452 613.436344,189.899736 Z M633.136462,188 C634.766387,188 636.165742,188.325415 637.33457,188.976253 C638.503398,189.627092 639.388047,190.552325 639.988546,191.751979 C640.589045,192.951633 640.88929,194.36059 640.88929,195.978892 C640.88929,197.175028 640.72487,198.262088 640.396025,199.240106 C640.067181,200.218123 639.573921,201.065959 638.916232,201.783641 C638.258543,202.501323 637.450742,203.05013 636.492804,203.430079 C635.534865,203.810028 634.437542,204 633.200801,204 C631.971208,204 630.87031,203.804751 629.898075,203.414248 C628.925839,203.023745 628.114463,202.473179 627.463923,201.762533 C626.813382,201.051887 626.32191,200.197015 625.989491,199.197889 C625.657072,198.198764 625.490865,197.118739 625.490865,195.957784 C625.490865,194.768684 625.664221,193.678105 626.010938,192.686016 C626.357654,191.693926 626.859849,190.849608 627.517538,190.153034 C628.175227,189.456461 628.97588,188.923485 629.919521,188.55409 C630.863162,188.184695 631.935465,188 633.136462,188 Z M637.661625,195.957784 C637.661625,194.824972 637.47576,193.843452 637.104022,193.013193 C636.732285,192.182933 636.201495,191.554971 635.511637,191.129288 C634.821778,190.703604 634.030061,190.490765 633.136462,190.490765 C632.500219,190.490765 631.91224,190.608618 631.372506,190.844327 C630.832772,191.080036 630.368107,191.423041 629.978498,191.873351 C629.588889,192.323661 629.281495,192.898853 629.056308,193.598945 C628.831121,194.299036 628.71853,195.085308 628.71853,195.957784 C628.71853,196.837296 628.831121,197.632362 629.056308,198.343008 C629.281495,199.053654 629.599612,199.642918 630.010668,200.110818 C630.421723,200.578718 630.893536,200.928759 631.426122,201.16095 C631.958707,201.393141 632.543112,201.509235 633.179354,201.509235 C633.994317,201.509235 634.743142,201.308709 635.425851,200.907652 C636.108561,200.506594 636.651861,199.887427 637.055768,199.050132 C637.459675,198.212837 637.661625,197.182064 637.661625,195.957784 Z M661.704613,197.44591 L661.704613,200.411609 C661.704613,200.805631 661.665296,201.120491 661.586659,201.356201 C661.508022,201.59191 661.363261,201.804748 661.152372,201.994723 C660.941482,202.184698 660.671619,202.367633 660.342775,202.543536 C659.391985,203.050134 658.476954,203.419524 657.597652,203.651715 C656.71835,203.883906 655.760426,204 654.723851,204 C653.515705,204 652.414808,203.817064 651.421125,203.451187 C650.427443,203.08531 649.580324,202.554093 648.879742,201.85752 C648.17916,201.160946 647.641222,200.316628 647.26591,199.324538 C646.890598,198.332449 646.702945,197.224281 646.702945,196 C646.702945,194.796828 646.885237,193.695695 647.249825,192.69657 C647.614414,191.697444 648.150565,190.849608 648.858296,190.153034 C649.566026,189.456461 650.427443,188.923485 651.442572,188.55409 C652.4577,188.184695 653.608639,188 654.895422,188 C655.953443,188 656.889921,188.138961 657.704883,188.416887 C658.519846,188.694812 659.181099,189.044853 659.688664,189.467018 C660.196228,189.889184 660.578683,190.335969 660.836039,190.807388 C661.093396,191.278806 661.222072,191.697448 661.222072,192.063325 C661.222072,192.457346 661.073737,192.793314 660.777062,193.07124 C660.480387,193.349166 660.12474,193.488127 659.71011,193.488127 C659.481349,193.488127 659.261526,193.435357 659.050637,193.329815 C658.839748,193.224274 658.662818,193.076518 658.519842,192.886544 C658.126658,192.281439 657.794244,191.8241 657.52259,191.514512 C657.250936,191.204924 656.884566,190.944592 656.423469,190.733509 C655.962371,190.522426 655.374392,190.416887 654.659513,190.416887 C653.923187,190.416887 653.265508,190.541775 652.686455,190.791557 C652.107403,191.041338 651.612357,191.403692 651.201301,191.878628 C650.790245,192.353564 650.475703,192.935793 650.257665,193.62533 C650.039627,194.314867 649.930609,195.078272 649.930609,195.915567 C649.930609,197.73088 650.354169,199.127524 651.201301,200.105541 C652.048433,201.083558 653.229753,201.572559 654.745298,201.572559 C655.481623,201.572559 656.173259,201.477574 656.820225,201.287599 C657.46719,201.097624 658.123082,200.826739 658.78792,200.474934 L658.78792,197.963061 L656.321599,197.963061 C655.728249,197.963061 655.279669,197.875111 654.975845,197.699208 C654.672021,197.523306 654.520112,197.224277 654.520112,196.802111 C654.520112,196.457342 654.647001,196.172385 654.900783,195.94723 C655.154565,195.722075 655.499489,195.609499 655.935566,195.609499 L659.549263,195.609499 C659.992488,195.609499 660.367794,195.648197 660.675192,195.725594 C660.98259,195.802991 661.231007,195.975372 661.42045,196.242744 C661.609893,196.510116 661.704613,196.911167 661.704613,197.44591 Z M671.979094,202.08971 L671.979094,197.182058 L668.140211,191.324538 C667.804218,190.796831 667.566524,190.385226 667.427122,190.08971 C667.287721,189.794194 667.218021,189.53738 667.218021,189.319261 C667.218021,188.96042 667.359208,188.650837 667.641585,188.390501 C667.923962,188.130166 668.272461,188 668.687091,188 C669.123167,188 669.453794,188.121371 669.678981,188.364116 C669.904168,188.606861 670.241943,189.090586 670.692317,189.815303 L673.630457,194.511873 L676.600766,189.815303 C676.779486,189.526824 676.929608,189.284082 677.051137,189.087071 C677.172667,188.890061 677.306705,188.705366 677.453255,188.532982 C677.599805,188.360597 677.762438,188.228672 677.941158,188.137203 C678.119878,188.045734 678.337913,188 678.595269,188 C678.995602,188 679.329803,188.128407 679.597882,188.385224 C679.865962,188.642042 680,188.939312 680,189.277045 C680,189.551453 679.932087,189.825856 679.79626,190.100264 C679.660433,190.374672 679.428101,190.754615 679.099257,191.240106 L675.163865,197.182058 L675.163865,202.08971 C675.163865,202.729994 675.013743,203.208442 674.713494,203.525066 C674.413244,203.84169 674.03079,204 673.566118,204 C673.094298,204 672.711843,203.843449 672.418742,203.530343 C672.125642,203.217237 671.979094,202.737031 671.979094,202.08971 Z" id="TECHNOLOGY" fill="#fff"></path>
        <path d="M221.21972,124.608643 L242.419356,156.68655 L242.419356,124.311625 C242.419356,122.20774 242.871066,120.629849 243.774499,119.577906 C244.677932,118.525964 245.89693,118 247.431529,118 C249.015631,118 250.265568,118.525964 251.181377,119.577906 C252.097186,120.629849 252.555083,122.20774 252.555083,124.311625 L252.555083,167.119295 C252.555083,171.896353 250.574986,174.284846 246.61473,174.284846 C245.624666,174.284846 244.733622,174.142527 243.941571,173.857884 C243.14952,173.57324 242.406984,173.12153 241.713939,172.50274 C241.020894,171.883951 240.377362,171.159977 239.783324,170.330799 C239.189286,169.50162 238.595256,168.653891 238.001218,167.787585 L217.321364,136.08095 L217.321364,167.973221 C217.321364,170.052355 216.838715,171.624058 215.873403,172.688376 C214.90809,173.752695 213.670529,174.284846 212.160682,174.284846 C210.601331,174.284846 209.351395,173.746507 208.410834,172.669813 C207.470273,171.593118 207,170.027604 207,167.973221 L207,125.98235 C207,124.200235 207.19801,122.801791 207.594035,121.786975 C208.064316,120.673153 208.843979,119.763546 209.933049,119.058125 C211.02212,118.352705 212.197803,118 213.460134,118 C214.450198,118 215.297927,118.160883 216.003348,118.482654 C216.708768,118.804424 217.327549,119.237571 217.859708,119.782106 C218.391867,120.326641 218.936394,121.032051 219.493305,121.898357 C220.050216,122.764663 220.625682,123.668082 221.21972,124.608643 Z M308.760283,127.430311 L283.922181,127.430311 L283.922181,140.796105 L306.792541,140.796105 C308.475649,140.796105 309.731774,141.173562 310.560952,141.928485 C311.390131,142.683409 311.804714,143.679646 311.804714,144.917225 C311.804714,146.154805 311.396318,147.163418 310.579516,147.943093 C309.762713,148.722768 308.500401,149.1126 306.792541,149.1126 L283.922181,149.1126 L283.922181,164.594645 L309.614208,164.594645 C311.34682,164.594645 312.652447,164.996853 313.531129,165.80128 C314.40981,166.605706 314.849145,167.676197 314.849145,169.012783 C314.849145,170.299866 314.40981,171.345605 313.531129,172.150032 C312.652447,172.954459 311.34682,173.356666 309.614208,173.356666 L279.652552,173.356666 C277.251647,173.356666 275.525249,172.824515 274.473307,171.760196 C273.421364,170.695878 272.8954,168.975668 272.8954,166.599514 L272.8954,125.685332 C272.8954,124.10123 273.130537,122.807978 273.600817,121.805539 C274.071098,120.803099 274.807447,120.072938 275.809886,119.615034 C276.812326,119.157129 278.093202,118.92818 279.652552,118.92818 L308.760283,118.92818 C310.517646,118.92818 311.823273,119.318012 312.677203,120.097687 C313.531133,120.877362 313.958092,121.89835 313.958092,123.160682 C313.958092,124.447765 313.531133,125.481128 312.677203,126.260804 C311.823273,127.040479 310.517646,127.430311 308.760283,127.430311 Z M370.423181,164.780281 L361.624033,132.145466 L352.713503,164.780281 C352.020459,167.255441 351.469744,169.031341 351.061343,170.108036 C350.652941,171.18473 349.941344,172.150028 348.926528,173.003958 C347.911713,173.857888 346.562771,174.284846 344.879663,174.284846 C343.518325,174.284846 342.398332,174.031146 341.51965,173.523739 C340.640969,173.016331 339.929371,172.298545 339.384836,171.370361 C338.840301,170.442176 338.394779,169.340746 338.048257,168.066039 C337.701734,166.791332 337.392344,165.609461 337.120076,164.520391 L328.061038,127.875837 C327.516503,125.7472 327.244239,124.125995 327.244239,123.012173 C327.244239,121.601332 327.739264,120.413273 328.729328,119.447961 C329.719391,118.482649 330.944577,118 332.404921,118 C334.4098,118 335.758742,118.643532 336.451787,119.930615 C337.144831,121.217698 337.751236,123.086415 338.27102,125.536823 L345.399444,157.317713 L353.381793,127.57882 C353.975831,125.301673 354.507983,123.569087 354.978263,122.38101 C355.448543,121.192934 356.215831,120.165758 357.28015,119.299452 C358.344469,118.433146 359.792415,118 361.624033,118 C363.480403,118 364.922162,118.45171 365.949353,119.355143 C366.976544,120.258576 367.688142,121.242437 368.084167,122.306756 C368.480193,123.371075 369.012344,125.128412 369.680637,127.57882 L377.737241,157.317713 L384.865665,125.536823 C385.212187,123.878466 385.540141,122.579027 385.849536,121.638466 C386.158931,120.697906 386.691082,119.856364 387.446006,119.113816 C388.20093,118.371268 389.296171,118 390.731764,118 C392.167356,118 393.386354,118.476461 394.388794,119.429397 C395.391233,120.382334 395.892446,121.57658 395.892446,123.012173 C395.892446,124.026988 395.620182,125.648194 395.075647,127.875837 L386.016608,164.520391 C385.397819,166.99555 384.884231,168.808578 384.475829,169.959527 C384.067428,171.110476 383.374394,172.119088 382.396706,172.985394 C381.419018,173.8517 380.039137,174.284846 378.257022,174.284846 C376.573914,174.284846 375.224972,173.864076 374.210157,173.022521 C373.195341,172.180967 372.489931,171.234233 372.093906,170.18229 C371.69788,169.130347 371.140978,167.329696 370.423181,164.780281 Z M477.301626,164.780281 L468.502478,132.145466 L459.591948,164.780281 C458.898903,167.255441 458.348189,169.031341 457.939787,170.108036 C457.531386,171.18473 456.819788,172.150028 455.804973,173.003958 C454.790157,173.857888 453.441216,174.284846 451.758107,174.284846 C450.39677,174.284846 449.276777,174.031146 448.398095,173.523739 C447.519413,173.016331 446.807816,172.298545 446.263281,171.370361 C445.718745,170.442176 445.273223,169.340746 444.926701,168.066039 C444.580179,166.791332 444.270788,165.609461 443.998521,164.520391 L434.939482,127.875837 C434.394947,125.7472 434.122684,124.125995 434.122684,123.012173 C434.122684,121.601332 434.617708,120.413273 435.607772,119.447961 C436.597836,118.482649 437.823021,118 439.283366,118 C441.288245,118 442.637187,118.643532 443.330231,119.930615 C444.023276,121.217698 444.629681,123.086415 445.149464,125.536823 L452.277888,157.317713 L460.260238,127.57882 C460.854276,125.301673 461.386427,123.569087 461.856708,122.38101 C462.326988,121.192934 463.094276,120.165758 464.158595,119.299452 C465.222913,118.433146 466.67086,118 468.502478,118 C470.358847,118 471.800606,118.45171 472.827797,119.355143 C473.854989,120.258576 474.566586,121.242437 474.962612,122.306756 C475.358637,123.371075 475.890789,125.128412 476.559082,127.57882 L484.615686,157.317713 L491.74411,125.536823 C492.090632,123.878466 492.418586,122.579027 492.727981,121.638466 C493.037376,120.697906 493.569527,119.856364 494.324451,119.113816 C495.079374,118.371268 496.174616,118 497.610208,118 C499.045801,118 500.264799,118.476461 501.267238,119.429397 C502.269678,120.382334 502.77089,121.57658 502.77089,123.012173 C502.77089,124.026988 502.498627,125.648194 501.954092,127.875837 L492.895053,164.520391 C492.276263,166.99555 491.762675,168.808578 491.354274,169.959527 C490.945873,171.110476 490.252838,172.119088 489.27515,172.985394 C488.297462,173.8517 486.917582,174.284846 485.135467,174.284846 C483.452358,174.284846 482.103417,173.864076 481.088601,173.022521 C480.073786,172.180967 479.368376,171.234233 478.97235,170.18229 C478.576325,169.130347 478.019422,167.329696 477.301626,164.780281 Z M553.184245,167.19355 L550.585341,160.362144 L528.457525,160.362144 L525.85862,167.342059 C524.843805,170.064734 523.977512,171.902512 523.259716,172.855449 C522.54192,173.808385 521.366237,174.284846 519.732631,174.284846 C518.346542,174.284846 517.121356,173.777446 516.057038,172.762631 C514.992719,171.747815 514.460568,170.596884 514.460568,169.309801 C514.460568,168.567253 514.584324,167.799965 514.83184,167.007914 C515.079356,166.215863 515.487751,165.114433 516.057038,163.703592 L529.97974,128.358491 C530.375766,127.343675 530.852227,126.124678 531.409138,124.701461 C531.966049,123.278244 532.560078,122.096373 533.191244,121.155813 C533.82241,120.215252 534.651576,119.454152 535.678767,118.872489 C536.705958,118.290827 537.974458,118 539.484306,118 C541.018904,118 542.29978,118.290827 543.326972,118.872489 C544.354163,119.454152 545.183329,120.202876 545.814494,121.118685 C546.44566,122.034494 546.977811,123.018356 547.410964,124.070298 C547.844117,125.122241 548.394832,126.526873 549.063125,128.284236 L563.282845,163.406575 C564.396667,166.079747 564.95357,168.022718 564.95357,169.235546 C564.95357,170.497878 564.427606,171.654997 563.375664,172.70694 C562.323721,173.758883 561.05522,174.284846 559.570125,174.284846 C558.703819,174.284846 557.961282,174.130151 557.342492,173.820756 C556.723702,173.511361 556.203927,173.090591 555.78315,172.558431 C555.362372,172.026272 554.910663,171.209482 554.428007,170.108036 C553.94535,169.00659 553.530767,168.035104 553.184245,167.19355 Z M531.353447,152.082776 L547.615164,152.082776 L539.410051,129.620816 L531.353447,152.082776 Z M585.51665,125.239805 L597.842883,161.73585 L610.206243,124.979915 C610.849784,123.049291 611.332433,121.706537 611.654204,120.951613 C611.975975,120.196689 612.508126,119.516031 613.250674,118.909617 C613.993222,118.303202 615.008022,118 616.295105,118 C617.235666,118 618.108146,118.235137 618.912573,118.705417 C619.717,119.175697 620.348156,119.800666 620.806061,120.580341 C621.263965,121.360016 621.492914,122.145868 621.492914,122.937919 C621.492914,123.482454 621.41866,124.070295 621.270151,124.701461 C621.121641,125.332627 620.936007,125.951407 620.713243,126.557821 C620.490478,127.164235 620.267717,127.789204 620.044953,128.432745 L606.864794,164.00061 C606.394514,165.361948 605.924241,166.655199 605.45396,167.880403 C604.98368,169.105607 604.439153,170.182285 603.820363,171.11047 C603.201573,172.038655 602.378595,172.799755 601.351404,173.393793 C600.324213,173.987832 599.068088,174.284846 597.582992,174.284846 C596.097897,174.284846 594.841772,173.99402 593.814581,173.412357 C592.78739,172.830695 591.958224,172.063407 591.327058,171.11047 C590.695892,170.157534 590.145177,169.074668 589.674897,167.86184 C589.204617,166.649011 588.734344,165.361948 588.264063,164.00061 L575.306668,128.729763 C575.083904,128.086221 574.854955,127.455065 574.619815,126.836275 C574.384674,126.217485 574.186665,125.549202 574.025779,124.831406 C573.864894,124.11361 573.784452,123.507205 573.784452,123.012173 C573.784452,121.749842 574.291853,120.59891 575.306668,119.559343 C576.321483,118.519776 577.596171,118 579.13077,118 C581.011892,118 582.34227,118.575466 583.121945,119.726415 C583.90162,120.877364 584.699847,122.715143 585.51665,125.239805 Z M673.911138,127.430311 L649.073036,127.430311 L649.073036,140.796105 L671.943396,140.796105 C673.626504,140.796105 674.882629,141.173562 675.711808,141.928485 C676.540986,142.683409 676.955569,143.679646 676.955569,144.917225 C676.955569,146.154805 676.547174,147.163418 675.730371,147.943093 C674.913569,148.722768 673.651256,149.1126 671.943396,149.1126 L649.073036,149.1126 L649.073036,164.594645 L674.765064,164.594645 C676.497675,164.594645 677.803303,164.996853 678.681984,165.80128 C679.560666,166.605706 680,167.676197 680,169.012783 C680,170.299866 679.560666,171.345605 678.681984,172.150032 C677.803303,172.954459 676.497675,173.356666 674.765064,173.356666 L644.803407,173.356666 C642.402503,173.356666 640.676105,172.824515 639.624162,171.760196 C638.572219,170.695878 638.046256,168.975668 638.046256,166.599514 L638.046256,125.685332 C638.046256,124.10123 638.281392,122.807978 638.751673,121.805539 C639.221953,120.803099 639.958302,120.072938 640.960741,119.615034 C641.963181,119.157129 643.244057,118.92818 644.803407,118.92818 L673.911138,118.92818 C675.668501,118.92818 676.974128,119.318012 677.828058,120.097687 C678.681988,120.877362 679.108947,121.89835 679.108947,123.160682 C679.108947,124.447765 678.681988,125.481128 677.828058,126.260804 C676.974128,127.040479 675.668501,127.430311 673.911138,127.430311 Z" id="NEW-WAVE" fill="#fff"></path>
        <g id="Group" transform="translate(20.000000, 16.000000)">
            <path d="M324.64269,5.88310083 C331.61085,13.3555375 331.202053,25.061954 323.729616,32.030114 L279.11704,73.6320139 C271.644603,80.6001739 259.938187,80.1913768 252.970027,72.7189401 C246.001867,65.2465034 246.410664,53.5400869 253.883101,46.571927 L298.495677,4.97002702 C305.968113,-1.99813292 317.67453,-1.58933584 324.64269,5.88310083 Z" id="Wave-3" fill="#0091C5"></path>
            <path d="M242.882691,6.04210356 C250.039179,13.716498 249.619333,25.7393042 241.944939,32.8957927 L113.958041,152.245506 C106.283647,159.401994 94.2608406,158.982149 87.1043521,151.307754 C79.9478635,143.63336 80.3677091,131.610554 88.0421036,124.454065 L216.029001,5.10435207 C223.703396,-2.05213651 235.726202,-1.63229087 242.882691,6.04210356 Z" id="Wave-2" fill="#90C33E"></path>
            <path d="M76.6426898,84.8831008 C83.6108497,92.3555375 83.2020526,104.061954 75.729616,111.030114 L31.1170402,152.632014 C23.6446035,159.600174 11.9381869,159.191377 4.97002702,151.71894 C-1.99813292,144.246503 -1.58933584,132.540087 5.88310083,125.571927 L50.4956766,83.970027 C57.9681133,77.0018671 69.6745298,77.4106642 76.6426898,84.8831008 Z" id="Wave-1" fill="#0091C5"></path>
        </g>
    </g>
</svg>