<?xml version="1.0" encoding="utf-8"?>
<svg width="796px" height="1081px" viewBox="0 0 796 1081" version="1.1" xmlns:xlink="http://www.w3.org/1999/xlink" xmlns="http://www.w3.org/2000/svg">
  <g id="Artboard">
    <g id="Logo" transform="translate(129 109)" artboard="76daa59a-5246-4e85-a1c5-234dcea8562f">
      <path d="M269 118L201 50.0002C201 50.0002 196.782 45.4808 195.584 38.0002C194.387 30.5195 194.58 19.6155 203 10.4579C209.605 3.27445 217.962 0.124562 227.5 0.403516C237.038 0.68247 242 4.50008 242 4.50008L269 31.3091L269 118Z" id="Vector" fill="#81D6E8" fill-rule="evenodd" stroke="none" />
      <path d="M269 249L93.0001 72.0001C93.0001 72.0001 88.782 67.4807 87.5844 60.0001C86.3868 52.5194 86.5806 41.6154 95.0001 32.4578C101.605 25.2743 109.962 22.1244 119.5 22.4034C129.038 22.6823 134 26.5 134 26.5L269 162L269 249Z" id="Vector-2" fill="#81D6E8" fill-rule="evenodd" stroke="none" />
      <path d="M269 380L27.9476 137.614C27.9476 137.614 23.7294 133.094 22.5319 125.614C21.3343 118.133 21.528 107.229 29.9476 98.0714C36.5521 90.8879 44.9098 87.738 54.4476 88.017C63.9854 88.2959 68.9476 92.1135 68.9476 92.1135L269 293L269 380Z" id="Vector-3" fill="#81D6E8" fill-rule="evenodd" stroke="none" />
      <path d="M269 511L5.94758 245.614C5.94758 245.614 1.72945 241.094 0.531862 233.614C-0.665722 226.133 -0.471956 215.229 7.94759 206.071C14.5521 198.888 22.9098 195.738 32.4476 196.017C41.9854 196.296 46.9476 200.114 46.9476 200.114L269 423.5L269 511Z" id="Vector-4" fill="#81D6E8" fill-rule="evenodd" stroke="none" />
      <path d="M269.052 117.614L337.052 49.6137C337.052 49.6137 341.271 45.0942 342.468 37.6136C343.666 30.133 343.472 19.229 335.052 10.0714C328.448 2.88792 320.09 -0.261974 310.552 0.0169804C301.015 0.295934 296.052 4.11354 296.052 4.11354L269.052 30.9225L269.052 117.614Z" id="Vector-5" fill="#41B3D3" fill-rule="evenodd" stroke="none" />
      <path d="M269.052 248.614L445.052 71.6137C445.052 71.6137 449.271 67.0943 450.468 59.6136C451.666 52.133 451.472 41.229 443.052 32.0714C436.448 24.8879 428.09 21.738 418.552 22.017C409.015 22.2959 404.052 26.1135 404.052 26.1135L269.052 161.614L269.052 248.614Z" id="Vector-6" fill="#41B3D3" fill-rule="evenodd" stroke="none" />
      <path d="M269 380L510.052 137.614C510.052 137.614 514.271 133.094 515.468 125.614C516.666 118.133 516.472 107.229 508.052 98.0714C501.448 90.8879 493.09 87.738 483.552 88.017C474.015 88.2959 469.052 92.1135 469.052 92.1135L269 293L269 380Z" id="Vector-7" fill="#41B3D3" fill-rule="evenodd" stroke="none" />
      <path d="M269 511L532.052 245.614C532.052 245.614 536.271 241.094 537.468 233.614C538.666 226.133 538.472 215.229 530.052 206.071C523.448 198.888 515.09 195.738 505.552 196.017C496.015 196.296 491.052 200.114 491.052 200.114L269 423.5L269 511Z" id="Vector-8" fill="#41B3D3" fill-rule="evenodd" stroke="none" />
    </g>
    <g id="Text" transform="translate(133 680.62)" artboard="925548db-1293-471e-b523-4b56f3a2003c">
      <path d="M491.942 201.786C469.903 201.774 449.913 217.506 449.846 245.818C449.78 274.13 469.101 291.829 501.668 292.037C506.297 292.066 516.112 290.794 516.112 290.794C516.112 290.794 523.515 289.488 522.942 281.773C522.37 274.057 514.797 273.797 514.797 273.797C514.797 273.797 506.837 275.307 501.465 275.141C471.377 274.21 470.367 255.855 470.367 255.855L527.385 247.71C527.385 247.71 530.286 248.215 529.977 239.935C529.129 217.23 513.981 201.799 491.942 201.786ZM510.723 234.751L468.516 241.141C468.516 241.141 470.616 217.828 492.582 218.46C509.775 218.955 510.723 234.751 510.723 234.751Z" id="Vector-2-Subtract-3" fill="#444444" fill-rule="evenodd" stroke="none" />
      <path d="M438.369 207.71L438.393 218.909C438.393 218.909 438.379 222.245 434.641 222.245C432.191 222.245 427.784 222.149 427.784 222.149C427.784 222.149 399.257 220.654 398.994 247.327C398.763 270.847 424.879 272.632 424.879 272.632C424.879 272.632 432.087 272.632 432.734 272.632C438.963 272.632 438.369 278.798 438.369 278.798L438.369 284.721C438.369 284.721 438.616 286.831 436.999 288.713C435.382 290.594 433.762 291.015 426.891 291.015C418.808 291.015 378.759 287.307 378.759 247.327C378.759 207.346 418.136 203.638 426.891 203.638C427.929 203.638 432.534 203.638 432.815 203.638C438.667 203.638 438.369 207.71 438.369 207.71Z" id="Vector-5" fill="#444444" fill-rule="evenodd" stroke="none" />
      <path d="M328.687 202.168C325.551 202.168 322.945 202.249 320.129 202.34C317.313 202.431 307.341 202.552 306.932 211.413C306.569 219.288 315.078 219.928 315.078 219.928L324.277 219.236C324.277 219.236 337.417 219.047 341.365 224.371C345.373 229.776 345.595 235.257 345.595 235.257C345.595 235.257 329.229 236.718 315.228 240.959C301.159 245.22 295.29 253.875 295.127 264.759C294.819 285.385 315.289 291.558 332.264 291.558C347.224 291.558 355.121 289.801 360.247 283.981C365.374 278.161 364.69 271.903 364.69 271.903L364.69 236.746C364.69 236.746 365.197 220.728 355.434 211.783C349.884 206.697 341.93 202.168 328.687 202.168ZM345.808 274.354L345.808 249.178C345.808 249.178 313.303 250.883 314.163 264.612C315.272 282.313 345.808 274.354 345.808 274.354Z" id="Vector-5-Subtract" fill="#444444" fill-rule="evenodd" stroke="none" />
      <path d="M243.991 213.213C243.991 213.213 244.927 205.394 252.985 205.394C261.044 205.394 261.762 213.213 261.762 213.213L261.762 216.175C261.762 216.175 267.828 209.525 274.771 206.47C281.713 203.416 289.531 204.066 289.531 204.066L289.531 223.209L281.385 223.209C281.385 223.209 277.301 222.853 269.973 226.857C263.893 230.18 262.743 234.839 262.743 234.839L262.743 282.078C262.743 282.078 261.371 290.006 252.877 290.006C244.382 290.006 243.991 282.078 243.991 282.078L243.991 213.213Z" id="Vector-3" fill="#444444" fill-rule="evenodd" stroke="none" />
      <path d="M184.381 213.213C184.381 213.213 185.317 205.394 193.376 205.394C201.435 205.394 202.153 213.213 202.153 213.213L202.153 216.175C202.153 216.175 208.219 209.525 215.161 206.47C222.103 203.416 229.921 204.066 229.921 204.066L229.921 223.209L221.776 223.209C221.776 223.209 217.692 222.853 210.364 226.857C204.284 230.18 203.133 234.839 203.133 234.839L203.133 282.078C203.133 282.078 201.762 290.006 193.267 290.006C184.773 290.006 184.381 282.078 184.381 282.078L184.381 213.213Z" id="Vector-4" fill="#444444" fill-rule="evenodd" stroke="none" />
      <path d="M130.773 201.875C108.734 201.862 88.7438 217.594 88.6776 245.906C88.6113 274.218 107.932 291.917 140.499 292.125C145.129 292.155 154.943 290.882 154.943 290.882C154.943 290.882 162.346 289.576 161.773 281.861C161.201 274.146 153.628 273.886 153.628 273.886C153.628 273.886 145.668 275.395 140.297 275.229C110.208 274.299 109.198 255.944 109.198 255.944L166.216 247.798C166.216 247.798 169.117 248.304 168.808 240.023C167.96 217.319 152.812 201.887 130.773 201.875ZM149.555 234.839L107.347 241.23C107.347 241.23 109.447 217.916 131.413 218.549C148.607 219.044 149.555 234.839 149.555 234.839Z" id="Vector-2-Subtract-2" fill="#444444" fill-rule="evenodd" stroke="none" />
      <path d="M8.14536 164.021L85.1561 164.021C85.1561 164.021 93.2136 164.171 93.4261 172.969C93.6385 181.766 85.1561 182.022 85.1561 182.022L56.545 182.022L56.6473 279.908C56.6473 279.908 57.2036 289.533 46.898 289.533C36.5925 289.533 37.0244 279.908 37.0244 279.908L37.0244 182.022L7.71926 182.03C7.71926 182.03 0 181.006 0 172.907C0 164.808 8.14536 164.021 8.14536 164.021Z" id="Vector-2" fill="#444444" fill-rule="evenodd" stroke="none" />
      <path d="M385.311 41.6394C363.272 41.627 343.282 57.3587 343.216 85.6707C343.149 113.983 362.47 131.682 395.037 131.89C399.667 131.92 409.481 130.647 409.481 130.647C409.481 130.647 416.884 129.341 416.312 121.626C415.739 113.911 408.166 113.65 408.166 113.65C408.166 113.65 400.206 115.16 394.835 114.994C364.746 114.064 363.737 95.7084 363.737 95.7084L420.755 87.563C420.755 87.563 423.656 88.0686 423.346 79.7878C422.498 57.0835 407.35 41.6519 385.311 41.6394ZM404.093 74.6041L361.885 80.9945C361.885 80.9945 363.985 57.6808 385.951 58.3134C403.145 58.8086 404.093 74.6041 404.093 74.6041Z" id="Vector-2-Subtract" fill="#444444" fill-rule="evenodd" stroke="none" />
      <path d="M258.957 121.255L258.957 51.6491C258.957 51.6491 260.068 43.8739 268.213 43.8739C276.359 43.8739 277.47 51.6491 277.47 51.6491C277.47 51.6491 286.732 41.5473 299.788 41.5367C327.091 41.5143 326.712 69.0506 326.712 69.0506L326.712 121.255C326.712 121.255 326.799 129.4 317.456 129.4C308.113 129.4 308.2 121.255 308.2 121.255L308.2 73.1233C308.2 73.1233 306.395 59.3663 293.922 59.3663C282.085 59.3663 277.99 67.9054 277.99 67.9054L278.094 121.359C278.094 121.359 277.921 129.4 268.213 129.4C258.506 129.4 258.957 121.255 258.957 121.255Z" id="Vector" fill="#444444" fill-rule="evenodd" stroke="none" />
      <path d="M239.705 73.8637C242.482 35.4754 218.956 0 173.554 0C128.153 0 106.417 33.4827 106.417 65.7183C106.417 97.9539 126.61 127.981 164.915 131.992C203.22 136.003 236.928 112.252 239.705 73.8637ZM219.712 65.7183C219.835 35.3275 198.207 19.6847 172.32 19.0676C146.434 18.4505 126.472 38.1043 126.04 65.7183C125.608 93.3323 145.632 113.788 173.061 113.48C200.49 113.171 219.588 96.1092 219.712 65.7183Z" id="Vector-Subtract" fill="#444444" fill-rule="evenodd" stroke="none" />
    </g>
  </g>
</svg>