<svg xmlns="http://www.w3.org/2000/svg" width="265px" height="70px" viewBox="0 0 264.61 69.58">
  <title>rgb-logo</title>
  <path d="M42.84,27.72,23.18,34.19l-4,20.31L4.36,41.41l3.23-21L28,14.64l14.8,13.08Z" transform="translate(-4.36 -4.46)" fill="#0431fc"/>
  <path d="M51.32,44.78l2-19.92L39.15,11.16l18.18-6.7L73.41,17.65,69.48,38.07,51.32,44.78Z" transform="translate(-4.36 -4.46)" fill="#f42313"/>
  <path d="M47.6,33.5,28.36,40.71,25,61,40.85,74l19.24-7.22,3.37-20.27L45.91,51.86,47.6,33.5Z" transform="translate(-4.36 -4.46)" fill="#2bef2a"/>
  <path d="M86.82,73.67a9.39,9.39,0,0,1-3.18-.48,6.48,6.48,0,0,1-2.48-1.57A7.07,7.07,0,0,1,79.57,69,10.89,10.89,0,0,1,79,65.38a10.11,10.11,0,0,1,.56-3.46,7.4,7.4,0,0,1,1.59-2.62,6.7,6.7,0,0,1,2.47-1.62,8.76,8.76,0,0,1,3.2-.57,10.26,10.26,0,0,1,1.58.12,11.39,11.39,0,0,1,1.45.32A11.56,11.56,0,0,1,91.1,58q.68.28,1.1.49v2.57H92q-.41-.35-.84-.67a7.34,7.34,0,0,0-1.23-.68,7.78,7.78,0,0,0-1.52-.54A7.59,7.59,0,0,0,86.57,59a4.75,4.75,0,0,0-3.83,1.74,7,7,0,0,0-1.44,4.58,9.25,9.25,0,0,0,.39,2.81,5.75,5.75,0,0,0,1.11,2,4.63,4.63,0,0,0,1.7,1.26,5.53,5.53,0,0,0,2.24.44,13.16,13.16,0,0,0,1.84-.13,6.48,6.48,0,0,0,1.54-.39V67.19H86.3V65.31h6v7l-1.12.46a11.53,11.53,0,0,1-1.3.44,14.45,14.45,0,0,1-1.45.35,8.93,8.93,0,0,1-1.61.11Zm17.69-.31H95v-16h2.18v14.1h7.32Zm13.12-14.17a7.38,7.38,0,0,1,1.45,2.61,11.27,11.27,0,0,1,.52,3.56,11.41,11.41,0,0,1-.51,3.51,7.16,7.16,0,0,1-1.46,2.63,6.16,6.16,0,0,1-2.33,1.69,8.44,8.44,0,0,1-6,0A6.11,6.11,0,0,1,107,71.56a7.26,7.26,0,0,1-1.45-2.62,11.38,11.38,0,0,1-.51-3.52,11.14,11.14,0,0,1,.51-3.54,7.71,7.71,0,0,1,1.51-2.69,6.18,6.18,0,0,1,2.28-1.62,7.76,7.76,0,0,1,3-.55,7.65,7.65,0,0,1,3,.57,6.31,6.31,0,0,1,2.28,1.6Zm-.3,6.17a10.2,10.2,0,0,0-.35-2.81,5.82,5.82,0,0,0-1-2,4.13,4.13,0,0,0-1.57-1.24,5.45,5.45,0,0,0-4.14,0,4.27,4.27,0,0,0-1.57,1.25,5.75,5.75,0,0,0-1,2.05,10.35,10.35,0,0,0-.35,2.79,7.49,7.49,0,0,0,1.37,4.79,4.78,4.78,0,0,0,7.26,0,7.51,7.51,0,0,0,1.32-4.83Zm15.78,3.08a4.59,4.59,0,0,1-.46,2.11,4.27,4.27,0,0,1-1.24,1.5,5.81,5.81,0,0,1-2,1,10.43,10.43,0,0,1-2.73.29H122v-16h4.32a22.61,22.61,0,0,1,2.63.11,5,5,0,0,1,1.68.53,3,3,0,0,1,1.32,1.21,3.62,3.62,0,0,1,.41,1.76,3.49,3.49,0,0,1-.61,2,4.11,4.11,0,0,1-1.69,1.4v.09a4.1,4.1,0,0,1,2.26,1.45,4,4,0,0,1,.8,2.56Zm-3-7.18a2.35,2.35,0,0,0-.2-1,1.48,1.48,0,0,0-.64-.67,3,3,0,0,0-1.18-.35q-.69-.05-1.79-.05h-2.09v4.68h2.48a8.1,8.1,0,0,0,1.51-.1,3.15,3.15,0,0,0,1-.42,1.74,1.74,0,0,0,.7-.82,3.27,3.27,0,0,0,.17-1.26Zm.77,7.26a3.62,3.62,0,0,0-.26-1.49,2.18,2.18,0,0,0-1.07-1,3.3,3.3,0,0,0-1.13-.34,15.23,15.23,0,0,0-1.73-.08h-2.48v5.91H126a15.4,15.4,0,0,0,2.26-.13,3.57,3.57,0,0,0,1.45-.55,2.73,2.73,0,0,0,.9-1,2.9,2.9,0,0,0,.25-1.31Zm2.66,4.82,5.53-16h2.69l5.53,16H145l-1.49-4.47h-6.26l-1.49,4.47Zm9.35-6.28-2.59-7.53-2.52,7.54Zm15.41,6.3h-9.5v-16H151v14.1h7.32Zm14.49,0h-6.36V71.72h2.09V59h-2.09V57.36h6.36V59H170.7V71.72h2.09Zm14.41,0h-2.44l-7.24-13.79V73.36h-2v-16h3.09L185.2,70V57.36h2Zm13.1-14.11h-7.6v4.51H200v1.89H192.7v7.7h-2.18v-16h9.78Zm13.57-.06a7.38,7.38,0,0,1,1.43,2.62,11.25,11.25,0,0,1,.52,3.56,11.47,11.47,0,0,1-.51,3.51,7.17,7.17,0,0,1-1.46,2.63,6.17,6.17,0,0,1-2.32,1.68,7.89,7.89,0,0,1-2.95.53,7.8,7.8,0,0,1-3-.55,6.12,6.12,0,0,1-2.28-1.66,7.23,7.23,0,0,1-1.45-2.62,11.35,11.35,0,0,1-.51-3.52,11.12,11.12,0,0,1,.51-3.54,7.72,7.72,0,0,1,1.45-2.64,6.18,6.18,0,0,1,2.28-1.62,7.77,7.77,0,0,1,3-.55,7.66,7.66,0,0,1,3,.57,6.3,6.3,0,0,1,2.29,1.6Zm-.3,6.17a10.21,10.21,0,0,0-.35-2.81,5.85,5.85,0,0,0-1-2,4.15,4.15,0,0,0-1.57-1.24,5.45,5.45,0,0,0-4.14,0,4.28,4.28,0,0,0-1.57,1.25,5.71,5.71,0,0,0-1,2.05,10.3,10.3,0,0,0-.35,2.79A7.48,7.48,0,0,0,205,70.19a4.78,4.78,0,0,0,7.26,0,7.52,7.52,0,0,0,1.35-4.83Zm8,8V59.25h-5.5V57.36h13.19v1.89h-5.5v14.1Zm9.34,0v-16h10.25v1.89h-8.07v4.38h7.52v1.89h-7.52v5.94h8.07v1.89Zm19.06.29a8.06,8.06,0,0,1-3-.53,6.3,6.3,0,0,1-2.33-1.57,7.14,7.14,0,0,1-1.52-2.6,10.9,10.9,0,0,1-.54-3.58,10.55,10.55,0,0,1,.52-3.5,7.51,7.51,0,0,1,1.52-2.6,6.51,6.51,0,0,1,2.32-1.64,7.67,7.67,0,0,1,3-.56,9.54,9.54,0,0,1,1.55.12,11,11,0,0,1,1.34.3,9.92,9.92,0,0,1,1.08.4q.56.24,1.1.53V61h-.18c-.19-.17-.44-.38-.74-.62a7.4,7.4,0,0,0-1.1-.72,7.24,7.24,0,0,0-1.37-.55,6.1,6.1,0,0,0-1.71-.21,4.79,4.79,0,0,0-2,.42,4.68,4.68,0,0,0-1.61,1.23,5.78,5.78,0,0,0-1.08,2,9.31,9.31,0,0,0-.39,2.78,8.7,8.7,0,0,0,.47,2.82,6,6,0,0,0,1.11,2,4.43,4.43,0,0,0,1.61,1.2,4.87,4.87,0,0,0,2,.4,6.45,6.45,0,0,0,1.75-.23A6.81,6.81,0,0,0,253.2,71a7.56,7.56,0,0,0,1-.68,8.49,8.49,0,0,0,.69-.6h.17v2.54l-1,.47a9.41,9.41,0,0,1-1.16.44,12.2,12.2,0,0,1-1.33.34,8.67,8.67,0,0,1-1.63.15Zm19-.29h-2.18V65.53h-7.54v7.83h-2.18v-16h2.18v6.27h7.54V57.36H269Z" transform="translate(-4.36 -4.46)" fill="#fff"/>
  <path d="M106.51,40.82h-5.76l-10.57-13H85.12v13H80.68V8.11H89.3a31.39,31.39,0,0,1,4.8.31,9.54,9.54,0,0,1,3.68,1.43,8.24,8.24,0,0,1,2.77,2.83,8.39,8.39,0,0,1,1,4.31,9.58,9.58,0,0,1-1.86,6,10.91,10.91,0,0,1-5.06,3.58ZM96.92,17.31a6,6,0,0,0-.52-2.54A4.31,4.31,0,0,0,94.81,13a6.22,6.22,0,0,0-2.19-.87,16.16,16.16,0,0,0-3.11-.25H85.12V24.19H89a16.26,16.26,0,0,0,3.43-.33A5.28,5.28,0,0,0,95,22.5a5.66,5.66,0,0,0,1.42-2.2,8.81,8.81,0,0,0,.45-3ZM123.1,41.46a19,19,0,0,1-6.47-1,13.17,13.17,0,0,1-5-3.21,14.46,14.46,0,0,1-3.23-5.38,22.35,22.35,0,0,1-1.12-7.38,20.75,20.75,0,0,1,1.13-7.09A15.12,15.12,0,0,1,111.65,12a13.62,13.62,0,0,1,5-3.32,17.75,17.75,0,0,1,6.52-1.16,20.86,20.86,0,0,1,3.23.24,22.87,22.87,0,0,1,3,.66,23.72,23.72,0,0,1,2.5.91q1.38.58,2.23,1v5.25h-.38q-.83-.73-1.71-1.37a15.1,15.1,0,0,0-2.5-1.4,15.74,15.74,0,0,0-3.09-1.1,15.39,15.39,0,0,0-3.76-.44,9.64,9.64,0,0,0-7.78,3.56q-3,3.56-3,9.47a19,19,0,0,0,.78,5.76,11.77,11.77,0,0,0,2.21,4.13,9.47,9.47,0,0,0,3.46,2.58,11.23,11.23,0,0,0,4.56.89,26.6,26.6,0,0,0,3.74-.26,13.11,13.11,0,0,0,3.14-.79V28.19h-7.7V24.37h12.09V38.65q-.85.37-2.27.94a23.41,23.41,0,0,1-2.65.9,28.85,28.85,0,0,1-3,.73,18.12,18.12,0,0,1-3.17.24Zm39.28-10.68a9.45,9.45,0,0,1-.94,4.31,8.73,8.73,0,0,1-2.52,3.1,11.78,11.78,0,0,1-4,2,21,21,0,0,1-5.55.6h-9.56V8.11h8.85a45.14,45.14,0,0,1,5.34.23,10.09,10.09,0,0,1,3.42,1.09A6.11,6.11,0,0,1,160,11.9a7.42,7.42,0,0,1,.83,3.59,7.16,7.16,0,0,1-1.24,4.13,8.36,8.36,0,0,1-3.44,2.86v.18a7.88,7.88,0,0,1,6.25,8.13ZM156.2,16.1a4.83,4.83,0,0,0-.4-2.05,3,3,0,0,0-1.3-1.37,6.17,6.17,0,0,0-2.4-.73q-1.32-.13-3.65-.13H144.2V21.4h5a16.2,16.2,0,0,0,3.1-.21,6.35,6.35,0,0,0,2-.87,3.55,3.55,0,0,0,1.43-1.67,6.72,6.72,0,0,0,.48-2.54ZM157.77,31a7.46,7.46,0,0,0-.54-3,4.45,4.45,0,0,0-2.17-2,6.7,6.7,0,0,0-2.3-.7,30.66,30.66,0,0,0-3.53-.15h-5v12h3.61a31.15,31.15,0,0,0,4.59-.26,7.25,7.25,0,0,0,3-1.12,5.59,5.59,0,0,0,1.84-1.94,6,6,0,0,0,.5-2.83Z" transform="translate(-4.36 -4.46)" fill="#fff"/>
</svg>
